<svg width="20" height="20" viewBox="0 0 20 20" fill="none" xmlns="http://www.w3.org/2000/svg">
<rect width="20" height="20" rx="10" fill="#1E1E1E"/>
<g clip-path="url(#clip0_1727_19)">
<path d="M7.77446 6.27403C7.6186 6.27403 7.49183 6.148 7.49183 5.99175L7.49186 3.8474L7.77446 6.27403ZM7.77446 6.27403C7.93021 6.27403 8.05706 6.14801 8.05706 5.99175L8.05703 3.8474L7.77446 6.27403ZM7.77443 3.56479C7.61834 3.56479 7.49186 3.69141 7.49186 3.84739L8.05703 3.84739C8.05703 3.69138 7.9305 3.56479 7.77443 3.56479Z" fill="#CF5A0D" stroke="#CF5A0D" stroke-width="0.2"/>
<path d="M7.49183 4.83652V4.83649C7.49188 4.68049 7.61834 4.55392 7.77443 4.55392H8.31335C8.46762 4.55392 8.56967 4.4468 8.56967 4.34197V4.34194C8.56971 4.2374 8.46756 4.13 8.31335 4.13H7.77446C7.6185 4.13 7.49183 4.0039 7.49183 3.8474V3.84736C7.49188 3.69141 7.61833 3.56479 7.77443 3.56479H8.31335C8.76042 3.56479 9.13486 3.90774 9.13487 4.34196L7.49183 4.83652ZM7.49183 4.83652C7.49183 4.99259 7.61838 5.11912 7.77446 5.11912H8.31335M7.49183 4.83652L8.31335 5.11912M8.31335 5.11912C8.76033 5.11912 9.13494 4.77655 9.13487 4.34198L8.31335 5.11912Z" fill="#CF5A0D" stroke="#CF5A0D" stroke-width="0.2"/>
<mask id="path-4-outside-1_1727_19" maskUnits="userSpaceOnUse" x="3" y="8.18896" width="16" height="6" fill="black">
<rect fill="white" x="3" y="8.18896" width="16" height="6"/>
<path fill-rule="evenodd" clip-rule="evenodd" d="M6.2632 13.9264C5.57311 13.9261 4.88223 13.9258 4.19178 13.9258C4.09102 13.9258 4.00918 13.8443 4.00918 13.7432C4.00921 13.6199 4.00695 13.4937 4.0044 13.3716C3.98573 12.3892 3.96445 11.2755 5.35049 11.0739C7.2761 10.7321 8.52163 10.2573 9.52248 9.87587C11.7898 9.01137 12.9279 8.57735 17.8769 10.9737C17.94 11.0041 17.9799 11.0679 17.9799 11.1379C17.9799 11.2384 17.9837 11.3868 17.9879 11.5586C18.0038 12.2073 18.0126 12.7639 17.9587 13.0027C17.8976 13.2765 17.6179 13.9134 16.352 13.9134L15.7377 13.9163C15.7373 13.9163 15.738 13.9163 15.7377 13.9163C15.6373 13.9163 15.5544 13.8352 15.5541 13.7343C15.5538 13.6335 15.6352 13.5514 15.7361 13.5511L16.3511 13.5482C17.318 13.5482 17.55 13.1564 17.6024 12.9228C17.6506 12.7081 17.6337 12.0218 17.6226 11.5675C17.6198 11.4496 17.6172 11.3424 17.616 11.253C12.8966 8.98059 11.8738 9.37021 9.65247 10.217C8.63676 10.6044 7.37276 11.0863 5.41134 11.434C5.40946 11.4343 5.41324 11.4337 5.41134 11.434C4.39308 11.5811 4.34871 12.264 4.3696 13.3647C4.37089 13.429 4.37215 13.4947 4.37312 13.5606C5.00302 13.5609 5.63296 13.5609 6.26318 13.5613C6.36401 13.5613 6.44578 13.643 6.44578 13.7439C6.44581 13.8446 6.364 13.9264 6.2632 13.9264ZM9.21941 13.9271C8.92494 13.9271 8.63734 13.9271 8.35901 13.9271C8.25822 13.9271 8.17638 13.8453 8.17638 13.7445C8.17641 13.6437 8.25819 13.5619 8.35901 13.5619C9.9324 13.5622 11.7901 13.5619 13.6406 13.5578C13.7415 13.5578 13.8235 13.6392 13.8235 13.7397C13.8239 13.8408 13.7423 13.9226 13.6415 13.923C12.1183 13.9264 10.5899 13.9271 9.21941 13.9271Z"/>
</mask>
<path fill-rule="evenodd" clip-rule="evenodd" d="M6.2632 13.9264C5.57311 13.9261 4.88223 13.9258 4.19178 13.9258C4.09102 13.9258 4.00918 13.8443 4.00918 13.7432C4.00921 13.6199 4.00695 13.4937 4.0044 13.3716C3.98573 12.3892 3.96445 11.2755 5.35049 11.0739C7.2761 10.7321 8.52163 10.2573 9.52248 9.87587C11.7898 9.01137 12.9279 8.57735 17.8769 10.9737C17.94 11.0041 17.9799 11.0679 17.9799 11.1379C17.9799 11.2384 17.9837 11.3868 17.9879 11.5586C18.0038 12.2073 18.0126 12.7639 17.9587 13.0027C17.8976 13.2765 17.6179 13.9134 16.352 13.9134L15.7377 13.9163C15.7373 13.9163 15.738 13.9163 15.7377 13.9163C15.6373 13.9163 15.5544 13.8352 15.5541 13.7343C15.5538 13.6335 15.6352 13.5514 15.7361 13.5511L16.3511 13.5482C17.318 13.5482 17.55 13.1564 17.6024 12.9228C17.6506 12.7081 17.6337 12.0218 17.6226 11.5675C17.6198 11.4496 17.6172 11.3424 17.616 11.253C12.8966 8.98059 11.8738 9.37021 9.65247 10.217C8.63676 10.6044 7.37276 11.0863 5.41134 11.434C5.40946 11.4343 5.41324 11.4337 5.41134 11.434C4.39308 11.5811 4.34871 12.264 4.3696 13.3647C4.37089 13.429 4.37215 13.4947 4.37312 13.5606C5.00302 13.5609 5.63296 13.5609 6.26318 13.5613C6.36401 13.5613 6.44578 13.643 6.44578 13.7439C6.44581 13.8446 6.364 13.9264 6.2632 13.9264ZM9.21941 13.9271C8.92494 13.9271 8.63734 13.9271 8.35901 13.9271C8.25822 13.9271 8.17638 13.8453 8.17638 13.7445C8.17641 13.6437 8.25819 13.5619 8.35901 13.5619C9.9324 13.5622 11.7901 13.5619 13.6406 13.5578C13.7415 13.5578 13.8235 13.6392 13.8235 13.7397C13.8239 13.8408 13.7423 13.9226 13.6415 13.923C12.1183 13.9264 10.5899 13.9271 9.21941 13.9271Z" fill="#CF5A0D"/>
<path d="M6.2632 13.9264L6.26311 14.1264H6.2632V13.9264ZM4.00918 13.7432L3.80918 13.7431V13.7432H4.00918ZM4.0044 13.3716L3.80444 13.3754L3.80445 13.3758L4.0044 13.3716ZM5.35049 11.0739L5.37929 11.2719L5.38544 11.2708L5.35049 11.0739ZM9.52248 9.87587L9.59369 10.0628L9.59373 10.0627L9.52248 9.87587ZM17.8769 10.9737L17.7897 11.1537L17.79 11.1539L17.8769 10.9737ZM17.9879 11.5586L17.7879 11.5634L17.7879 11.5635L17.9879 11.5586ZM17.9587 13.0027L17.7636 12.9586L17.7635 12.9591L17.9587 13.0027ZM16.352 13.9134V13.7134L16.3511 13.7134L16.352 13.9134ZM15.5541 13.7343L15.3541 13.7349V13.735L15.5541 13.7343ZM15.7361 13.5511L15.7367 13.7511L15.737 13.7511L15.7361 13.5511ZM16.3511 13.5482V13.3482L16.3502 13.3482L16.3511 13.5482ZM17.6024 12.9228L17.4072 12.8789L17.4072 12.8791L17.6024 12.9228ZM17.6226 11.5675L17.4227 11.5723L17.4227 11.5724L17.6226 11.5675ZM17.616 11.253L17.816 11.2502L17.8142 11.1265L17.7028 11.0728L17.616 11.253ZM9.65247 10.217L9.58123 10.0301L9.5812 10.0301L9.65247 10.217ZM4.3696 13.3647L4.16964 13.3685L4.16964 13.3687L4.3696 13.3647ZM4.37312 13.5606L4.17314 13.5635L4.17604 13.7605L4.37302 13.7606L4.37312 13.5606ZM6.26318 13.5613L6.26308 13.7613H6.26318V13.5613ZM6.44578 13.7439H6.24578V13.7439L6.44578 13.7439ZM8.17638 13.7445L7.97638 13.7444V13.7445H8.17638ZM8.35901 13.5619L8.35905 13.3619H8.35901V13.5619ZM13.6406 13.5578V13.3578L13.6401 13.3578L13.6406 13.5578ZM13.8235 13.7397H13.6235L13.6235 13.7405L13.8235 13.7397ZM13.6415 13.923L13.642 14.123L13.6422 14.123L13.6415 13.923ZM6.2633 13.7264C5.57321 13.7261 4.88229 13.7258 4.19178 13.7258V14.1258C4.88218 14.1258 5.573 14.1261 6.26311 14.1264L6.2633 13.7264ZM4.19178 13.7258C4.20122 13.7258 4.20918 13.7336 4.20918 13.7432H3.80918C3.80918 13.955 3.98081 14.1258 4.19178 14.1258V13.7258ZM4.20918 13.7433C4.20921 13.6177 4.20691 13.4897 4.20436 13.3675L3.80445 13.3758C3.80699 13.4977 3.80921 13.6221 3.80918 13.7431L4.20918 13.7433ZM4.20437 13.3678C4.19483 12.866 4.18858 12.3849 4.33712 12.0024C4.40895 11.8174 4.51565 11.6607 4.67471 11.5384C4.8346 11.4154 5.05894 11.3184 5.37928 11.2718L5.3217 10.876C4.94902 10.9302 4.65626 11.048 4.43089 11.2213C4.20471 11.3952 4.05802 11.6161 3.96425 11.8576C3.78159 12.3279 3.79531 12.8949 3.80444 13.3754L4.20437 13.3678ZM5.38544 11.2708C7.33002 10.9257 8.58968 10.4453 9.59369 10.0628L9.45126 9.68898C8.45357 10.0692 7.22218 10.5386 5.31554 10.877L5.38544 11.2708ZM9.59373 10.0627C10.7301 9.62948 11.543 9.32196 12.6801 9.40148C13.8266 9.48166 15.3196 9.95765 17.7897 11.1537L17.9641 10.7937C15.4852 9.59341 13.9346 9.08824 12.708 9.00246C11.472 8.91602 10.5822 9.25776 9.45122 9.68899L9.59373 10.0627ZM17.79 11.1539C17.7838 11.1508 17.7799 11.1444 17.7799 11.1379H18.1799C18.1799 10.9913 18.0962 10.8574 17.9638 10.7935L17.79 11.1539ZM17.7799 11.1379C17.7799 11.2415 17.7838 11.3931 17.7879 11.5634L18.1878 11.5538C18.1836 11.3805 18.1799 11.2354 18.1799 11.1379H17.7799ZM17.7879 11.5635C17.7959 11.8881 17.802 12.1862 17.7995 12.4323C17.7969 12.6842 17.7852 12.8628 17.7636 12.9586L18.1538 13.0467C18.1861 12.9038 18.1969 12.6847 18.1994 12.4364C18.202 12.1824 18.1957 11.8778 18.1878 11.5537L17.7879 11.5635ZM17.7635 12.9591C17.7398 13.0654 17.6725 13.2484 17.4803 13.4061C17.2888 13.5633 16.951 13.7134 16.352 13.7134V14.1134C17.0189 14.1134 17.4539 13.9452 17.734 13.7154C18.0134 13.4861 18.1165 13.2138 18.1539 13.0462L17.7635 12.9591ZM16.3511 13.7134L15.7368 13.7163L15.7386 14.1163L16.353 14.1134L16.3511 13.7134ZM15.7377 13.7163C15.7377 13.7163 15.7377 13.7163 15.7377 13.7163C15.7377 13.7163 15.7377 13.7163 15.7377 13.7163C15.7377 13.7163 15.7377 13.7163 15.7377 13.7163C15.7377 13.7163 15.7377 13.7163 15.7377 13.7163C15.7377 13.7163 15.7377 13.7163 15.7377 13.7163C15.7377 13.7163 15.7377 13.7163 15.7377 13.7163C15.7377 13.7163 15.7377 13.7163 15.7377 13.7163C15.7377 13.7163 15.7377 13.7163 15.7377 13.7163C15.7377 13.7163 15.7377 13.7163 15.7377 13.7163C15.7377 13.7163 15.7377 13.7163 15.7377 13.7163C15.7377 13.7163 15.7377 13.7163 15.7377 13.7163C15.7377 13.7163 15.7377 13.7163 15.7377 13.7163C15.7377 13.7163 15.7377 13.7163 15.7377 13.7163C15.7377 13.7163 15.7377 13.7163 15.7377 13.7163C15.7377 13.7163 15.7377 13.7163 15.7377 13.7163H15.7377C15.7377 13.7163 15.7377 13.7163 15.7377 13.7163C15.7377 13.7163 15.7377 13.7163 15.7377 13.7163C15.7377 13.7163 15.7377 13.7163 15.7377 13.7163H15.7376C15.7376 13.7163 15.7376 13.7163 15.7376 13.7163C15.7376 13.7163 15.7376 13.7163 15.7376 13.7163H15.7376C15.7376 13.7163 15.7376 13.7163 15.7376 13.7163C15.7376 13.7163 15.7376 13.7163 15.7376 13.7163H15.7376C15.7376 13.7163 15.7376 13.7163 15.7376 13.7163H15.7376C15.7376 13.7163 15.7376 13.7163 15.7376 13.7163H15.7376C15.7376 13.7163 15.7376 13.7163 15.7376 13.7163H15.7376C15.7376 13.7163 15.7376 13.7163 15.7376 13.7163H15.7376C15.7376 13.7163 15.7376 13.7163 15.7376 13.7163C15.7376 13.7163 15.7376 13.7163 15.7376 13.7163H15.7376C15.7376 13.7163 15.7376 13.7163 15.7376 13.7163C15.7376 13.7163 15.7376 13.7163 15.7376 13.7163H15.7376H15.7376C15.7376 13.7163 15.7376 13.7163 15.7376 13.7163C15.7376 13.7163 15.7376 13.7163 15.7376 13.7163H15.7376H15.7376C15.7376 13.7163 15.7376 13.7163 15.7376 13.7163C15.7376 13.7163 15.7376 13.7163 15.7376 13.7163C15.7376 13.7163 15.7376 13.7163 15.7376 13.7163C15.7376 13.7163 15.7376 13.7163 15.7376 13.7163C15.7376 13.7163 15.7376 13.7163 15.7376 13.7163C15.7376 13.7163 15.7376 13.7163 15.7376 13.7163C15.7376 13.7163 15.7376 13.7163 15.7376 13.7163C15.7376 13.7163 15.7376 13.7163 15.7376 13.7163C15.7376 13.7163 15.7376 13.7163 15.7376 13.7163C15.7376 13.7163 15.7376 13.7163 15.7376 13.7163C15.7376 13.7163 15.7376 13.7163 15.7376 13.7163C15.7376 13.7163 15.7376 13.7163 15.7376 13.7163C15.7376 13.7163 15.7376 13.7163 15.7376 13.7163C15.7376 13.7163 15.7376 13.7163 15.7376 13.7163C15.7376 13.7163 15.7376 13.7163 15.7376 13.7163H15.7376H15.7376C15.7376 13.7163 15.7376 13.7163 15.7376 13.7163C15.7376 13.7163 15.7376 13.7163 15.7376 13.7163H15.7376C15.7376 13.7163 15.7376 13.7163 15.7376 13.7163C15.7376 13.7163 15.7376 13.7163 15.7376 13.7163H15.7376C15.7376 13.7163 15.7376 13.7163 15.7376 13.7163C15.7376 13.7163 15.7376 13.7163 15.7376 13.7163H15.7376C15.7376 13.7163 15.7376 13.7163 15.7376 13.7163C15.7376 13.7163 15.7376 13.7163 15.7376 13.7163C15.7376 13.7163 15.7376 13.7163 15.7376 13.7163C15.7376 13.7163 15.7376 13.7163 15.7376 13.7163H15.7376C15.7376 13.7163 15.7376 13.7163 15.7376 13.7163C15.7376 13.7163 15.7376 13.7163 15.7376 13.7163H15.7376C15.7376 13.7163 15.7376 13.7163 15.7376 13.7163H15.7376C15.7376 13.9163 15.7376 14.1163 15.7376 14.1163C15.7376 14.1163 15.7376 14.1163 15.7376 14.1163C15.7376 14.1163 15.7376 14.1163 15.7376 14.1163C15.7376 14.1163 15.7376 14.1163 15.7376 14.1163H15.7376C15.7376 14.1163 15.7376 14.1163 15.7376 14.1163H15.7376C15.7376 14.1163 15.7376 14.1163 15.7376 14.1163C15.7376 14.1163 15.7376 14.1163 15.7376 14.1163C15.7376 14.1163 15.7376 14.1163 15.7376 14.1163C15.7376 14.1163 15.7376 14.1163 15.7376 14.1163C15.7376 14.1163 15.7376 14.1163 15.7376 14.1163H15.7376C15.7376 14.1163 15.7376 14.1163 15.7376 14.1163C15.7376 14.1163 15.7376 14.1163 15.7376 14.1163C15.7376 14.1163 15.7376 14.1163 15.7376 14.1163C15.7376 14.1163 15.7376 14.1163 15.7376 14.1163H15.7376C15.7376 14.1163 15.7376 14.1163 15.7376 14.1163H15.7376C15.7376 14.1163 15.7376 14.1163 15.7376 14.1163C15.7376 14.1163 15.7376 14.1163 15.7376 14.1163C15.7376 14.1163 15.7376 14.1163 15.7376 14.1163C15.7376 14.1163 15.7376 14.1163 15.7376 14.1163C15.7376 14.1163 15.7376 14.1163 15.7376 14.1163H15.7376C15.7376 14.1163 15.7376 14.1163 15.7376 14.1163H15.7376C15.7376 14.1163 15.7376 14.1163 15.7376 14.1163C15.7376 14.1163 15.7376 14.1163 15.7376 14.1163H15.7376C15.7376 14.1163 15.7376 14.1163 15.7376 14.1163C15.7376 14.1163 15.7376 14.1163 15.7376 14.1163H15.7376C15.7376 14.1163 15.7376 14.1163 15.7376 14.1163C15.7376 14.1163 15.7376 14.1163 15.7376 14.1163C15.7376 14.1163 15.7376 14.1163 15.7376 14.1163H15.7376H15.7376C15.7376 14.1163 15.7376 14.1163 15.7376 14.1163C15.7376 14.1163 15.7376 14.1163 15.7376 14.1163C15.7376 14.1163 15.7376 14.1163 15.7376 14.1163H15.7376H15.7376C15.7376 14.1163 15.7376 14.1163 15.7376 14.1163C15.7376 14.1163 15.7376 14.1163 15.7376 14.1163C15.7376 14.1163 15.7376 14.1163 15.7376 14.1163C15.7376 14.1163 15.7376 14.1163 15.7376 14.1163C15.7376 14.1163 15.7376 14.1163 15.7376 14.1163H15.7376H15.7376H15.7376H15.7376C15.7376 14.1163 15.7376 14.1163 15.7376 14.1163C15.7376 14.1163 15.7376 14.1163 15.7376 14.1163C15.7376 14.1163 15.7376 14.1163 15.7376 14.1163C15.7376 14.1163 15.7376 14.1163 15.7376 14.1163C15.7376 14.1163 15.7376 14.1163 15.7376 14.1163C15.7376 14.1163 15.7376 14.1163 15.7376 14.1163C15.7376 14.1163 15.7376 14.1163 15.7376 14.1163C15.7376 14.1163 15.7376 14.1163 15.7376 14.1163C15.7376 14.1163 15.7376 14.1163 15.7376 14.1163C15.7376 14.1163 15.7376 14.1163 15.7376 14.1163C15.7376 14.1163 15.7376 14.1163 15.7376 14.1163H15.7376H15.7376H15.7376H15.7376H15.7376H15.7376H15.7376H15.7376H15.7376H15.7376H15.7377H15.7377H15.7377H15.7377H15.7377H15.7377H15.7377H15.7377H15.7377H15.7377C15.7377 14.1163 15.7377 14.1163 15.7377 14.1163C15.7377 14.1163 15.7377 14.1163 15.7377 14.1163C15.7377 14.1163 15.7377 14.1163 15.7377 14.1163C15.7377 14.1163 15.7377 14.1163 15.7377 14.1163C15.7377 14.1163 15.7377 14.1163 15.7377 14.1163C15.7377 14.1163 15.7377 14.1163 15.7377 14.1163C15.7377 14.1163 15.7377 14.1163 15.7377 14.1163C15.7377 14.1163 15.7377 14.1163 15.7377 14.1163C15.7377 14.1163 15.7377 14.1163 15.7377 14.1163C15.7377 14.1163 15.7377 14.1163 15.7377 14.1163C15.7377 14.1163 15.7377 14.1163 15.7377 14.1163C15.7377 14.1163 15.7377 14.1163 15.7377 14.1163C15.7377 14.1163 15.7377 14.1163 15.7377 14.1163C15.7377 14.1163 15.7377 14.1163 15.7377 14.1163C15.7377 14.1163 15.7377 14.1163 15.7377 14.1163C15.7377 14.1163 15.7377 14.1163 15.7377 14.1163C15.7377 14.1163 15.7377 14.1163 15.7377 14.1163C15.7377 14.1163 15.7377 14.1163 15.7377 14.1163H15.7377H15.7377H15.7377H15.7377H15.7377H15.7377H15.7377H15.7377C15.7377 14.1163 15.7377 14.1163 15.7377 14.1163C15.7377 14.1163 15.7377 14.1163 15.7377 14.1163C15.7377 14.1163 15.7377 14.1163 15.7377 14.1163C15.7377 14.1163 15.7377 14.1163 15.7377 14.1163C15.7377 14.1163 15.7377 14.1163 15.7377 14.1163C15.7377 14.1163 15.7377 14.1163 15.7377 14.1163C15.7377 14.1163 15.7377 14.1163 15.7377 14.1163C15.7377 14.1163 15.7377 14.1163 15.7377 14.1163C15.7377 14.1163 15.7377 14.1163 15.7377 14.1163C15.7377 14.1163 15.7377 14.1163 15.7377 14.1163C15.7377 14.1163 15.7377 14.1163 15.7377 14.1163C15.7377 14.1163 15.7377 14.1163 15.7377 14.1163C15.7377 14.1163 15.7377 14.1163 15.7377 14.1163C15.7377 14.1163 15.7377 14.1163 15.7377 14.1163C15.7377 14.1163 15.7377 14.1163 15.7377 14.1163C15.7377 14.1163 15.7377 14.1163 15.7377 14.1163C15.7377 14.1163 15.7377 14.1163 15.7377 14.1163C15.7377 14.1163 15.7377 14.1163 15.7377 14.1163C15.7377 14.1163 15.7377 14.1163 15.7377 14.1163C15.7377 14.1163 15.7377 14.1163 15.7377 14.1163C15.7377 14.1163 15.7377 14.1163 15.7377 14.1163C15.7377 14.1163 15.7377 14.1163 15.7377 14.1163C15.7377 14.1163 15.7377 14.1163 15.7377 14.1163C15.7377 14.1163 15.7377 14.1163 15.7377 14.1163C15.7377 14.1163 15.7377 14.1163 15.7377 14.1163C15.7377 14.1163 15.7377 14.1163 15.7377 14.1163C15.7377 14.1163 15.7377 14.1163 15.7377 14.1163C15.7377 14.1163 15.7377 14.1163 15.7377 14.1163C15.7377 14.1163 15.7377 14.1163 15.7377 14.1163C15.7377 14.1163 15.7377 14.1163 15.7377 14.1163C15.7377 14.1163 15.7377 14.1163 15.7377 14.1163C15.7377 14.1163 15.7377 14.1163 15.7377 14.1163C15.7377 14.1163 15.7377 14.1163 15.7377 14.1163C15.7377 14.1163 15.7377 14.1163 15.7377 14.1163C15.7377 14.1163 15.7377 14.1163 15.7377 14.1163C15.7377 14.1163 15.7377 14.1163 15.7377 14.1163C15.7377 14.1163 15.7377 14.1163 15.7377 14.1163C15.7377 14.1163 15.7377 14.1163 15.7377 14.1163C15.7377 14.1163 15.7377 14.1163 15.7377 14.1163C15.7377 14.1163 15.7377 14.1163 15.7377 14.1163H15.7377H15.7377H15.7377H15.7377C15.7377 14.1163 15.7377 14.1163 15.7377 14.1163C15.7377 14.1163 15.7377 14.1163 15.7377 14.1163C15.7377 14.1163 15.7377 14.1163 15.7377 14.1163C15.7377 14.1163 15.7377 14.1163 15.7377 14.1163C15.7377 14.1163 15.7377 14.1163 15.7377 14.1163C15.7377 14.1163 15.7377 14.1163 15.7377 14.1163H15.7377H15.7377C15.7377 14.1163 15.7377 14.1163 15.7377 14.1163C15.7377 14.1163 15.7377 14.1163 15.7377 14.1163C15.7377 14.1163 15.7377 14.1163 15.7377 14.1163C15.7377 14.1163 15.7377 14.1163 15.7377 14.1163H15.7377H15.7377C15.7377 14.1163 15.7377 14.1163 15.7377 14.1163C15.7377 14.1163 15.7377 14.1163 15.7377 14.1163H15.7377H15.7377C15.7377 14.1163 15.7377 14.1163 15.7377 14.1163C15.7377 14.1163 15.7377 14.1163 15.7377 14.1163H15.7377C15.7377 14.1163 15.7377 14.1163 15.7377 14.1163C15.7378 14.1163 15.7378 14.1163 15.7378 14.1163H15.7378C15.7378 14.1163 15.7378 14.1163 15.7378 14.1163C15.7378 14.1163 15.7378 14.1163 15.7378 14.1163H15.7378C15.7378 14.1163 15.7378 14.1163 15.7378 14.1163H15.7378C15.7378 14.1163 15.7378 14.1163 15.7378 14.1163H15.7378C15.7378 14.1163 15.7378 14.1163 15.7378 14.1163C15.7378 14.1163 15.7378 14.1163 15.7378 14.1163C15.7378 14.1163 15.7378 14.1163 15.7378 14.1163C15.7378 14.1163 15.7378 14.1163 15.7378 14.1163H15.7378H15.7378C15.7378 14.1163 15.7378 14.1163 15.7378 14.1163C15.7378 14.1163 15.7378 14.1163 15.7378 14.1163C15.7378 14.1163 15.7378 14.1163 15.7378 14.1163C15.7378 14.1163 15.7378 14.1163 15.7378 14.1163C15.7378 14.1163 15.7378 14.1163 15.7378 14.1163H15.7378C15.7378 14.1163 15.7378 14.1163 15.7378 14.1163C15.7378 14.1163 15.7378 14.1163 15.7378 14.1163C15.7378 14.1163 15.7378 14.1163 15.7378 14.1163C15.7378 14.1163 15.7378 14.1163 15.7378 14.1163C15.7378 14.1163 15.7378 14.1163 15.7378 14.1163C15.7378 14.1163 15.7378 14.1163 15.7378 14.1163H15.7378H15.7378C15.7378 14.1163 15.7378 13.9163 15.7378 13.7163H15.7378C15.7378 13.7163 15.7378 13.7163 15.7378 13.7163C15.7378 13.7163 15.7378 13.7163 15.7378 13.7163C15.7378 13.7163 15.7378 13.7163 15.7378 13.7163C15.7378 13.7163 15.7378 13.7163 15.7378 13.7163H15.7378C15.7378 13.7163 15.7378 13.7163 15.7378 13.7163C15.7378 13.7163 15.7378 13.7163 15.7378 13.7163C15.7378 13.7163 15.7378 13.7163 15.7378 13.7163C15.7378 13.7163 15.7378 13.7163 15.7378 13.7163H15.7378C15.7378 13.7163 15.7378 13.7163 15.7378 13.7163C15.7378 13.7163 15.7378 13.7163 15.7378 13.7163C15.7378 13.7163 15.7378 13.7163 15.7378 13.7163C15.7378 13.7163 15.7378 13.7163 15.7378 13.7163C15.7378 13.7163 15.7378 13.7163 15.7378 13.7163H15.7378C15.7378 13.7163 15.7378 13.7163 15.7378 13.7163C15.7378 13.7163 15.7378 13.7163 15.7378 13.7163H15.7378H15.7378C15.7378 13.7163 15.7378 13.7163 15.7378 13.7163C15.7378 13.7163 15.7378 13.7163 15.7378 13.7163C15.7378 13.7163 15.7378 13.7163 15.7378 13.7163C15.7378 13.7163 15.7378 13.7163 15.7378 13.7163C15.7378 13.7163 15.7378 13.7163 15.7378 13.7163C15.7378 13.7163 15.7378 13.7163 15.7378 13.7163C15.7378 13.7163 15.7378 13.7163 15.7378 13.7163C15.7377 13.7163 15.7377 13.7163 15.7377 13.7163C15.7377 13.7163 15.7377 13.7163 15.7377 13.7163C15.7377 13.7163 15.7377 13.7163 15.7377 13.7163C15.7377 13.7163 15.7377 13.7163 15.7377 13.7163C15.7377 13.7163 15.7377 13.7163 15.7377 13.7163C15.7377 13.7163 15.7377 13.7163 15.7377 13.7163C15.7377 13.7163 15.7377 13.7163 15.7377 13.7163C15.7377 13.7163 15.7377 13.7163 15.7377 13.7163H15.7377H15.7377C15.7377 13.7163 15.7377 13.7163 15.7377 13.7163C15.7377 13.7163 15.7377 13.7163 15.7377 13.7163C15.7377 13.7163 15.7377 13.7163 15.7377 13.7163H15.7377C15.7377 13.7163 15.7377 13.7163 15.7377 13.7163C15.7377 13.7163 15.7377 13.7163 15.7377 13.7163H15.7377C15.7377 13.7163 15.7377 13.7163 15.7377 13.7163C15.7377 13.7163 15.7377 13.7163 15.7377 13.7163H15.7377C15.7377 13.7163 15.7377 13.7163 15.7377 13.7163H15.7377C15.7377 13.7163 15.7377 13.7163 15.7377 13.7163H15.7377C15.7377 13.7163 15.7377 13.7163 15.7377 13.7163H15.7377C15.7377 13.7163 15.7377 13.7163 15.7377 13.7163H15.7377C15.7377 13.7163 15.7377 13.7163 15.7377 13.7163H15.7377C15.7377 13.7163 15.7377 13.7163 15.7377 13.7163C15.7377 13.7163 15.7377 13.7163 15.7377 13.7163H15.7377C15.7377 13.7163 15.7377 13.7163 15.7377 13.7163C15.7377 13.7163 15.7377 13.7163 15.7377 13.7163C15.7377 13.7163 15.7377 13.7163 15.7377 13.7163H15.7377C15.7377 13.7163 15.7377 13.7163 15.7377 13.7163C15.7377 13.7163 15.7377 13.7163 15.7377 13.7163C15.7377 13.7163 15.7377 13.7163 15.7377 13.7163C15.7377 13.7163 15.7377 13.7163 15.7377 13.7163C15.7377 13.7163 15.7377 13.7163 15.7377 13.7163C15.7377 13.7163 15.7377 13.7163 15.7377 13.7163C15.7377 13.7163 15.7377 13.7163 15.7377 13.7163C15.7377 13.7163 15.7377 13.7163 15.7377 13.7163V14.1163C15.7377 14.1163 15.7377 14.1163 15.7377 14.1163C15.7377 14.1163 15.7377 14.1163 15.7377 14.1163C15.7377 14.1163 15.7377 14.1163 15.7377 14.1163C15.7377 14.1163 15.7377 14.1163 15.7377 14.1163C15.7377 14.1163 15.7377 14.1163 15.7377 14.1163C15.7377 14.1163 15.7377 14.1163 15.7377 14.1163C15.7377 14.1163 15.7377 14.1163 15.7377 14.1163C15.7377 14.1163 15.7377 14.1163 15.7377 14.1163H15.7377C15.7377 14.1163 15.7377 14.1163 15.7377 14.1163C15.7377 14.1163 15.7377 14.1163 15.7377 14.1163C15.7377 14.1163 15.7377 14.1163 15.7377 14.1163H15.7377C15.7377 14.1163 15.7377 14.1163 15.7377 14.1163C15.7377 14.1163 15.7377 14.1163 15.7377 14.1163H15.7377C15.7377 14.1163 15.7377 14.1163 15.7377 14.1163H15.7377C15.7377 14.1163 15.7377 14.1163 15.7377 14.1163H15.7377C15.7377 14.1163 15.7377 14.1163 15.7377 14.1163H15.7377C15.7377 14.1163 15.7377 14.1163 15.7377 14.1163H15.7377C15.7377 14.1163 15.7377 14.1163 15.7377 14.1163H15.7377C15.7377 14.1163 15.7377 14.1163 15.7377 14.1163C15.7377 14.1163 15.7377 14.1163 15.7377 14.1163H15.7377C15.7377 14.1163 15.7377 14.1163 15.7377 14.1163C15.7377 14.1163 15.7377 14.1163 15.7377 14.1163H15.7377C15.7377 14.1163 15.7377 14.1163 15.7377 14.1163C15.7377 14.1163 15.7377 14.1163 15.7377 14.1163C15.7377 14.1163 15.7377 14.1163 15.7377 14.1163H15.7377H15.7377C15.7377 14.1163 15.7377 14.1163 15.7377 14.1163C15.7377 14.1163 15.7377 14.1163 15.7377 14.1163C15.7377 14.1163 15.7377 14.1163 15.7377 14.1163C15.7377 14.1163 15.7377 14.1163 15.7377 14.1163C15.7377 14.1163 15.7377 14.1163 15.7377 14.1163C15.7377 14.1163 15.7377 14.1163 15.7377 14.1163C15.7377 14.1163 15.7377 14.1163 15.7377 14.1163C15.7377 14.1163 15.7377 14.1163 15.7378 14.1163C15.7378 14.1163 15.7378 14.1163 15.7378 14.1163C15.7378 14.1163 15.7378 14.1163 15.7378 14.1163C15.7378 14.1163 15.7378 14.1163 15.7378 14.1163C15.7378 14.1163 15.7378 14.1163 15.7378 14.1163C15.7378 14.1163 15.7378 14.1163 15.7378 14.1163C15.7378 14.1163 15.7378 14.1163 15.7378 14.1163C15.7378 14.1163 15.7378 14.1163 15.7378 14.1163H15.7378H15.7378C15.7378 14.1163 15.7378 14.1163 15.7378 14.1163C15.7378 14.1163 15.7378 14.1163 15.7378 14.1163H15.7378C15.7378 14.1163 15.7378 14.1163 15.7378 14.1163C15.7378 14.1163 15.7378 14.1163 15.7378 14.1163C15.7378 14.1163 15.7378 14.1163 15.7378 14.1163C15.7378 14.1163 15.7378 14.1163 15.7378 14.1163C15.7378 14.1163 15.7378 14.1163 15.7378 14.1163H15.7378C15.7378 14.1163 15.7378 14.1163 15.7378 14.1163C15.7378 14.1163 15.7378 14.1163 15.7378 14.1163C15.7378 14.1163 15.7378 14.1163 15.7378 14.1163C15.7378 14.1163 15.7378 14.1163 15.7378 14.1163H15.7378C15.7378 14.1163 15.7378 14.1163 15.7378 14.1163C15.7378 14.1163 15.7378 14.1163 15.7378 14.1163C15.7378 14.1163 15.7378 14.1163 15.7378 14.1163C15.7378 14.1163 15.7378 14.1163 15.7378 14.1163H15.7378C15.7378 13.9163 15.7378 13.7163 15.7378 13.7163H15.7378H15.7378C15.7378 13.7163 15.7378 13.7163 15.7378 13.7163C15.7378 13.7163 15.7378 13.7163 15.7378 13.7163C15.7378 13.7163 15.7378 13.7163 15.7378 13.7163C15.7378 13.7163 15.7378 13.7163 15.7378 13.7163C15.7378 13.7163 15.7378 13.7163 15.7378 13.7163C15.7378 13.7163 15.7378 13.7163 15.7378 13.7163H15.7378C15.7378 13.7163 15.7378 13.7163 15.7378 13.7163C15.7378 13.7163 15.7378 13.7163 15.7378 13.7163C15.7378 13.7163 15.7378 13.7163 15.7378 13.7163C15.7378 13.7163 15.7378 13.7163 15.7378 13.7163C15.7378 13.7163 15.7378 13.7163 15.7378 13.7163H15.7378H15.7378C15.7378 13.7163 15.7378 13.7163 15.7378 13.7163C15.7378 13.7163 15.7378 13.7163 15.7378 13.7163C15.7378 13.7163 15.7378 13.7163 15.7378 13.7163C15.7378 13.7163 15.7378 13.7163 15.7378 13.7163H15.7378C15.7378 13.7163 15.7378 13.7163 15.7378 13.7163H15.7378C15.7378 13.7163 15.7378 13.7163 15.7378 13.7163H15.7378C15.7378 13.7163 15.7378 13.7163 15.7378 13.7163C15.7378 13.7163 15.7378 13.7163 15.7378 13.7163H15.7378C15.7378 13.7163 15.7378 13.7163 15.7377 13.7163C15.7377 13.7163 15.7377 13.7163 15.7377 13.7163H15.7377C15.7377 13.7163 15.7377 13.7163 15.7377 13.7163C15.7377 13.7163 15.7377 13.7163 15.7377 13.7163H15.7377H15.7377C15.7377 13.7163 15.7377 13.7163 15.7377 13.7163C15.7377 13.7163 15.7377 13.7163 15.7377 13.7163H15.7377H15.7377C15.7377 13.7163 15.7377 13.7163 15.7377 13.7163C15.7377 13.7163 15.7377 13.7163 15.7377 13.7163C15.7377 13.7163 15.7377 13.7163 15.7377 13.7163C15.7377 13.7163 15.7377 13.7163 15.7377 13.7163H15.7377H15.7377C15.7377 13.7163 15.7377 13.7163 15.7377 13.7163C15.7377 13.7163 15.7377 13.7163 15.7377 13.7163C15.7377 13.7163 15.7377 13.7163 15.7377 13.7163C15.7377 13.7163 15.7377 13.7163 15.7377 13.7163C15.7377 13.7163 15.7377 13.7163 15.7377 13.7163C15.7377 13.7163 15.7377 13.7163 15.7377 13.7163H15.7377H15.7377H15.7377H15.7377C15.7377 13.7163 15.7377 13.7163 15.7377 13.7163C15.7377 13.7163 15.7377 13.7163 15.7377 13.7163C15.7377 13.7163 15.7377 13.7163 15.7377 13.7163C15.7377 13.7163 15.7377 13.7163 15.7377 13.7163C15.7377 13.7163 15.7377 13.7163 15.7377 13.7163C15.7377 13.7163 15.7377 13.7163 15.7377 13.7163C15.7377 13.7163 15.7377 13.7163 15.7377 13.7163C15.7377 13.7163 15.7377 13.7163 15.7377 13.7163C15.7377 13.7163 15.7377 13.7163 15.7377 13.7163C15.7377 13.7163 15.7377 13.7163 15.7377 13.7163C15.7377 13.7163 15.7377 13.7163 15.7377 13.7163C15.7377 13.7163 15.7377 13.7163 15.7377 13.7163C15.7377 13.7163 15.7377 13.7163 15.7377 13.7163C15.7377 13.7163 15.7377 13.7163 15.7377 13.7163C15.7377 13.7163 15.7377 13.7163 15.7377 13.7163C15.7377 13.7163 15.7377 13.7163 15.7377 13.7163C15.7377 13.7163 15.7377 13.7163 15.7377 13.7163C15.7377 13.7163 15.7377 13.7163 15.7377 13.7163C15.7377 13.7163 15.7377 13.7163 15.7377 13.7163C15.7377 13.7163 15.7377 13.7163 15.7377 13.7163C15.7377 13.7163 15.7377 13.7163 15.7377 13.7163C15.7377 13.7163 15.7377 13.7163 15.7377 13.7163C15.7377 13.7163 15.7377 13.7163 15.7377 13.7163C15.7377 13.7163 15.7377 13.7163 15.7377 13.7163C15.7377 13.7163 15.7377 13.7163 15.7377 13.7163C15.7377 13.7163 15.7377 13.7163 15.7377 13.7163C15.7377 13.7163 15.7377 13.7163 15.7377 13.7163C15.7377 13.7163 15.7377 13.7163 15.7377 13.7163C15.7377 13.7163 15.7377 13.7163 15.7377 13.7163C15.7377 13.7163 15.7377 13.7163 15.7377 13.7163C15.7377 13.7163 15.7377 13.7163 15.7377 13.7163C15.7377 13.7163 15.7377 13.7163 15.7377 13.7163C15.7377 13.7163 15.7377 13.7163 15.7377 13.7163C15.7377 13.7163 15.7377 13.7163 15.7377 13.7163C15.7377 13.7163 15.7377 13.7163 15.7377 13.7163C15.7377 13.7163 15.7377 13.7163 15.7377 13.7163C15.7377 13.7163 15.7377 13.7163 15.7377 13.7163C15.7377 13.7163 15.7377 13.7163 15.7377 13.7163C15.7377 13.7163 15.7377 13.7163 15.7377 13.7163C15.7377 13.7163 15.7377 13.7163 15.7377 13.7163H15.7377H15.7377H15.7377H15.7377H15.7377H15.7377H15.7377H15.7377C15.7377 13.7163 15.7377 13.7163 15.7377 13.7163C15.7377 13.7163 15.7377 13.7163 15.7377 13.7163C15.7377 13.7163 15.7377 13.7163 15.7377 13.7163C15.7377 13.7163 15.7377 13.7163 15.7377 13.7163C15.7377 13.7163 15.7377 13.7163 15.7377 13.7163C15.7377 13.7163 15.7377 13.7163 15.7377 13.7163C15.7377 13.7163 15.7377 13.7163 15.7377 13.7163C15.7377 13.7163 15.7377 13.7163 15.7377 13.7163C15.7377 13.7163 15.7377 13.7163 15.7377 13.7163C15.7377 13.7163 15.7377 13.7163 15.7377 13.7163C15.7377 13.7163 15.7377 13.7163 15.7377 13.7163C15.7377 13.7163 15.7377 13.7163 15.7377 13.7163C15.7377 13.7163 15.7377 13.7163 15.7377 13.7163C15.7377 13.7163 15.7377 13.7163 15.7377 13.7163C15.7377 13.7163 15.7377 13.7163 15.7377 13.7163C15.7377 13.7163 15.7377 13.7163 15.7377 13.7163C15.7377 13.7163 15.7377 13.7163 15.7377 13.7163C15.7377 13.7163 15.7377 13.7163 15.7377 13.7163H15.7377H15.7377H15.7377H15.7377H15.7377H15.7377H15.7377H15.7377H15.7377H15.7376H15.7376H15.7376H15.7376H15.7376H15.7376H15.7376H15.7376H15.7376H15.7376H15.7376C15.7376 13.7163 15.7376 13.7163 15.7376 13.7163C15.7376 13.7163 15.7376 13.7163 15.7376 13.7163C15.7376 13.7163 15.7376 13.7163 15.7376 13.7163C15.7376 13.7163 15.7376 13.7163 15.7376 13.7163C15.7376 13.7163 15.7376 13.7163 15.7376 13.7163C15.7376 13.7163 15.7376 13.7163 15.7376 13.7163C15.7376 13.7163 15.7376 13.7163 15.7376 13.7163C15.7376 13.7163 15.7376 13.7163 15.7376 13.7163C15.7376 13.7163 15.7376 13.7163 15.7376 13.7163C15.7376 13.7163 15.7376 13.7163 15.7376 13.7163C15.7376 13.7163 15.7376 13.7163 15.7376 13.7163H15.7376H15.7376H15.7376H15.7376C15.7376 13.7163 15.7376 13.7163 15.7376 13.7163C15.7376 13.7163 15.7376 13.7163 15.7376 13.7163C15.7376 13.7163 15.7376 13.7163 15.7376 13.7163C15.7376 13.7163 15.7376 13.7163 15.7376 13.7163C15.7376 13.7163 15.7376 13.7163 15.7376 13.7163H15.7376H15.7376C15.7376 13.7163 15.7376 13.7163 15.7376 13.7163C15.7376 13.7163 15.7376 13.7163 15.7376 13.7163C15.7376 13.7163 15.7376 13.7163 15.7376 13.7163H15.7376H15.7376C15.7376 13.7163 15.7376 13.7163 15.7376 13.7163C15.7376 13.7163 15.7376 13.7163 15.7376 13.7163C15.7376 13.7163 15.7376 13.7163 15.7376 13.7163H15.7376C15.7376 13.7163 15.7376 13.7163 15.7376 13.7163C15.7376 13.7163 15.7376 13.7163 15.7376 13.7163H15.7376C15.7376 13.7163 15.7376 13.7163 15.7376 13.7163C15.7376 13.7163 15.7376 13.7163 15.7376 13.7163H15.7376C15.7376 13.7163 15.7376 13.7163 15.7376 13.7163H15.7376C15.7376 13.7163 15.7376 13.7163 15.7376 13.7163C15.7376 13.7163 15.7376 13.7163 15.7376 13.7163C15.7376 13.7163 15.7376 13.7163 15.7376 13.7163C15.7376 13.7163 15.7376 13.7163 15.7376 13.7163C15.7376 13.7163 15.7376 13.7163 15.7376 13.7163H15.7376C15.7376 13.7163 15.7376 13.7163 15.7376 13.7163H15.7376C15.7376 13.7163 15.7376 13.7163 15.7376 13.7163C15.7376 13.7163 15.7376 13.7163 15.7376 13.7163C15.7376 13.7163 15.7376 13.7163 15.7376 13.7163C15.7376 13.7163 15.7376 13.7163 15.7376 13.7163H15.7376C15.7376 13.7163 15.7376 13.7163 15.7376 13.7163C15.7376 13.7163 15.7376 13.7163 15.7376 13.7163C15.7376 13.7163 15.7376 13.7163 15.7376 13.7163C15.7376 13.7163 15.7376 13.7163 15.7376 13.7163C15.7376 13.7163 15.7376 13.7163 15.7376 13.7163H15.7376C15.7376 13.7163 15.7376 13.7163 15.7376 13.7163H15.7376C15.7376 13.7163 15.7376 13.7163 15.7376 13.7163C15.7376 13.7163 15.7376 13.7163 15.7376 13.7163C15.7376 13.7163 15.7376 13.7163 15.7376 13.7163C15.7376 13.7163 15.7376 13.9163 15.7376 14.1163H15.7376C15.7376 14.1163 15.7376 14.1163 15.7376 14.1163H15.7376C15.7376 14.1163 15.7376 14.1163 15.7376 14.1163C15.7376 14.1163 15.7376 14.1163 15.7376 14.1163H15.7376C15.7376 14.1163 15.7376 14.1163 15.7376 14.1163C15.7376 14.1163 15.7376 14.1163 15.7376 14.1163C15.7376 14.1163 15.7376 14.1163 15.7376 14.1163C15.7376 14.1163 15.7376 14.1163 15.7376 14.1163H15.7376C15.7376 14.1163 15.7376 14.1163 15.7376 14.1163C15.7376 14.1163 15.7376 14.1163 15.7376 14.1163H15.7376C15.7376 14.1163 15.7376 14.1163 15.7376 14.1163C15.7376 14.1163 15.7376 14.1163 15.7376 14.1163H15.7376C15.7376 14.1163 15.7376 14.1163 15.7376 14.1163C15.7376 14.1163 15.7376 14.1163 15.7376 14.1163H15.7376H15.7376C15.7376 14.1163 15.7376 14.1163 15.7376 14.1163C15.7376 14.1163 15.7376 14.1163 15.7376 14.1163C15.7376 14.1163 15.7376 14.1163 15.7376 14.1163C15.7376 14.1163 15.7376 14.1163 15.7376 14.1163C15.7376 14.1163 15.7376 14.1163 15.7376 14.1163C15.7376 14.1163 15.7376 14.1163 15.7376 14.1163C15.7376 14.1163 15.7376 14.1163 15.7376 14.1163C15.7376 14.1163 15.7376 14.1163 15.7376 14.1163C15.7376 14.1163 15.7376 14.1163 15.7376 14.1163C15.7376 14.1163 15.7376 14.1163 15.7376 14.1163C15.7376 14.1163 15.7376 14.1163 15.7376 14.1163C15.7376 14.1163 15.7376 14.1163 15.7376 14.1163C15.7376 14.1163 15.7376 14.1163 15.7376 14.1163C15.7376 14.1163 15.7376 14.1163 15.7376 14.1163C15.7376 14.1163 15.7376 14.1163 15.7376 14.1163H15.7376H15.7376C15.7376 14.1163 15.7376 14.1163 15.7376 14.1163C15.7376 14.1163 15.7376 14.1163 15.7376 14.1163H15.7376H15.7376C15.7376 14.1163 15.7376 14.1163 15.7376 14.1163C15.7376 14.1163 15.7376 14.1163 15.7376 14.1163H15.7376C15.7376 14.1163 15.7376 14.1163 15.7376 14.1163C15.7376 14.1163 15.7376 14.1163 15.7376 14.1163H15.7376C15.7376 14.1163 15.7376 14.1163 15.7376 14.1163H15.7376C15.7376 14.1163 15.7376 14.1163 15.7376 14.1163H15.7376C15.7376 14.1163 15.7376 14.1163 15.7376 14.1163H15.7376C15.7376 14.1163 15.7376 14.1163 15.7376 14.1163H15.7376C15.7376 14.1163 15.7376 14.1163 15.7376 14.1163C15.7376 14.1163 15.7376 14.1163 15.7376 14.1163H15.7376C15.7376 14.1163 15.7376 14.1163 15.7376 14.1163C15.7376 14.1163 15.7376 14.1163 15.7376 14.1163H15.7377C15.7377 14.1163 15.7377 14.1163 15.7377 14.1163C15.7377 14.1163 15.7377 14.1163 15.7377 14.1163C15.7377 14.1163 15.7377 14.1163 15.7377 14.1163H15.7377C15.7377 14.1163 15.7377 14.1163 15.7377 14.1163C15.7377 14.1163 15.7377 14.1163 15.7377 14.1163C15.7377 14.1163 15.7377 14.1163 15.7377 14.1163C15.7377 14.1163 15.7377 14.1163 15.7377 14.1163C15.7377 14.1163 15.7377 14.1163 15.7377 14.1163C15.7377 14.1163 15.7377 14.1163 15.7377 14.1163C15.7377 14.1163 15.7377 14.1163 15.7377 14.1163C15.7377 14.1163 15.7377 14.1163 15.7377 14.1163C15.7377 14.1163 15.7377 14.1163 15.7377 14.1163C15.7377 14.1163 15.7377 14.1163 15.7377 14.1163C15.7377 14.1163 15.7377 14.1163 15.7377 14.1163C15.7377 14.1163 15.7377 14.1163 15.7377 14.1163C15.7377 14.1163 15.7377 14.1163 15.7377 14.1163C15.7377 14.1163 15.7377 14.1163 15.7377 14.1163C15.7377 14.1163 15.7377 14.1163 15.7377 14.1163V13.7163ZM15.7377 13.7163C15.7423 13.7163 15.7463 13.7183 15.7489 13.7208C15.7516 13.7235 15.7541 13.7282 15.7541 13.7337L15.3541 13.735C15.3548 13.9478 15.5288 14.1163 15.7377 14.1163V13.7163ZM15.7541 13.7338C15.7541 13.7431 15.7465 13.751 15.7367 13.7511L15.7354 13.3511C15.524 13.3518 15.3535 13.5239 15.3541 13.7349L15.7541 13.7338ZM15.737 13.7511L16.3521 13.7482L16.3502 13.3482L15.7351 13.3511L15.737 13.7511ZM16.3511 13.7482C16.8595 13.7482 17.2033 13.6455 17.4328 13.4881C17.6665 13.3278 17.7622 13.1242 17.7975 12.9665L17.4072 12.8791C17.3902 12.9549 17.3437 13.0641 17.2066 13.1582C17.0653 13.2551 16.8096 13.3482 16.3511 13.3482V13.7482ZM17.7975 12.9666C17.8274 12.8334 17.8343 12.5839 17.8348 12.3353C17.8352 12.077 17.8281 11.7892 17.8226 11.5626L17.4227 11.5724C17.4283 11.8001 17.4352 12.0825 17.4348 12.3347C17.4343 12.5965 17.4255 12.7975 17.4072 12.8789L17.7975 12.9666ZM17.8226 11.5627C17.8197 11.4445 17.8172 11.3384 17.816 11.2502L17.416 11.2558C17.4173 11.3464 17.4199 11.4546 17.4227 11.5723L17.8226 11.5627ZM17.7028 11.0728C15.3397 9.93496 13.8752 9.4495 12.7118 9.36582C11.5387 9.28143 10.6887 9.60795 9.58123 10.0301L9.72371 10.4039C10.8376 9.97925 11.6097 9.68757 12.6831 9.76478C13.7663 9.8427 15.1729 10.2986 17.5292 11.4332L17.7028 11.0728ZM9.5812 10.0301C8.56876 10.4163 7.31889 10.8927 5.37642 11.2371L5.44625 11.6309C7.42664 11.2798 8.70476 10.7925 9.72374 10.4039L9.5812 10.0301ZM5.37736 11.2369C5.37712 11.237 5.37682 11.237 5.37656 11.2371C5.37648 11.2371 5.37635 11.2371 5.37619 11.2371C5.37617 11.2371 5.37562 11.2372 5.37495 11.2374C5.37475 11.2374 5.37434 11.2375 5.37383 11.2376C5.37366 11.2376 5.37212 11.2379 5.37018 11.2383C5.36961 11.2384 5.36825 11.2387 5.36745 11.2389C5.36626 11.2391 5.36308 11.2399 5.36111 11.2404C5.35715 11.2414 5.34174 11.2464 5.33051 11.2509C5.23042 11.3477 5.28424 11.589 5.39804 11.6337C5.40943 11.6341 5.42475 11.6336 5.42867 11.6333C5.43065 11.6331 5.43382 11.6328 5.43501 11.6326C5.43712 11.6324 5.43877 11.6321 5.43926 11.6321C5.44053 11.6319 5.44152 11.6317 5.44177 11.6317C5.44217 11.6316 5.4425 11.6316 5.44267 11.6316C5.44303 11.6315 5.44331 11.6315 5.44343 11.6314C5.44385 11.6314 5.44421 11.6313 5.44423 11.6313C5.44435 11.6313 5.44446 11.6313 5.44455 11.6312C5.44471 11.6312 5.44489 11.6312 5.44505 11.6312C5.44521 11.6311 5.44538 11.6311 5.44555 11.6311C5.44563 11.6311 5.44575 11.631 5.44587 11.631C5.44588 11.631 5.44627 11.6309 5.44673 11.6309C5.44686 11.6308 5.4472 11.6308 5.44764 11.6307C5.44784 11.6307 5.44829 11.6306 5.44884 11.6305C5.44893 11.6305 5.45081 11.6301 5.45314 11.6296C5.45387 11.6295 5.45568 11.6291 5.45675 11.6288C5.45849 11.6284 5.46354 11.6271 5.46683 11.6262C5.47539 11.6236 5.54336 11.5846 5.58701 11.5305C5.58995 11.3429 5.42035 11.2341 5.40458 11.2341C5.39991 11.2343 5.39301 11.2348 5.39077 11.235C5.38947 11.2352 5.38732 11.2354 5.38646 11.2355C5.38485 11.2358 5.38359 11.2359 5.38312 11.236C5.38203 11.2362 5.38118 11.2363 5.38094 11.2363C5.38057 11.2364 5.38027 11.2364 5.3801 11.2365C5.37955 11.2366 5.3791 11.2366 5.37905 11.2366C5.3789 11.2367 5.37878 11.2367 5.37871 11.2367C5.37845 11.2367 5.37816 11.2368 5.37792 11.2368L5.44476 11.6312C5.445 11.6312 5.445 11.6312 5.44491 11.6312C5.44488 11.6312 5.44479 11.6312 5.44466 11.6312C5.44464 11.6312 5.44421 11.6313 5.44367 11.6314C5.4435 11.6314 5.44321 11.6315 5.44284 11.6315C5.4426 11.6316 5.44175 11.6317 5.44066 11.6318C5.44019 11.6319 5.43893 11.6321 5.43732 11.6323C5.43646 11.6324 5.43431 11.6327 5.43301 11.6328C5.43078 11.633 5.42387 11.6336 5.4192 11.6338C5.40344 11.6337 5.23383 11.525 5.23677 11.3373C5.28043 11.2832 5.3484 11.2443 5.35695 11.2416C5.36025 11.2407 5.36529 11.2394 5.36703 11.239C5.3681 11.2388 5.36991 11.2384 5.37064 11.2382C5.37297 11.2377 5.37485 11.2374 5.37494 11.2374C5.37549 11.2373 5.37593 11.2372 5.37614 11.2371C5.37657 11.2371 5.37691 11.237 5.37702 11.237C5.3777 11.2369 5.37823 11.2368 5.37765 11.2369C5.37711 11.237 5.37757 11.2369 5.3782 11.2368C5.37831 11.2368 5.37859 11.2367 5.37894 11.2367C5.37911 11.2366 5.37943 11.2366 5.37984 11.2365C5.38008 11.2365 5.38107 11.2363 5.38234 11.2361C5.38284 11.2361 5.38448 11.2358 5.38659 11.2356C5.38778 11.2354 5.39095 11.2351 5.39293 11.2349C5.39685 11.2346 5.41217 11.2341 5.42356 11.2345C5.53736 11.2792 5.59118 11.5205 5.49109 11.6173C5.47986 11.6218 5.46445 11.6268 5.4605 11.6278C5.45852 11.6283 5.45534 11.6291 5.45415 11.6294C5.45335 11.6295 5.45199 11.6298 5.45142 11.6299C5.44948 11.6303 5.44794 11.6306 5.44777 11.6307C5.44726 11.6308 5.44686 11.6308 5.44666 11.6309C5.44625 11.6309 5.44593 11.631 5.44582 11.631C5.44567 11.631 5.44554 11.6311 5.44547 11.6311C5.44534 11.6311 5.44523 11.6311 5.4452 11.6311C5.44509 11.6312 5.44508 11.6312 5.44532 11.6311L5.37736 11.2369ZM5.38275 11.2361C5.10761 11.2758 4.88184 11.354 4.70212 11.4786C4.51996 11.6048 4.39689 11.7706 4.3161 11.965C4.16127 12.3376 4.15939 12.8283 4.16964 13.3685L4.56957 13.3609C4.55893 12.8004 4.56878 12.3993 4.68548 12.1185C4.74045 11.9862 4.81809 11.8849 4.92998 11.8073C5.04432 11.7281 5.20594 11.6658 5.43993 11.632L5.38275 11.2361ZM4.16964 13.3687C4.17093 13.433 4.17218 13.4982 4.17314 13.5635L4.5731 13.5577C4.57212 13.4912 4.57086 13.4251 4.56956 13.3607L4.16964 13.3687ZM4.37302 13.7606C4.688 13.7608 5.00298 13.7608 5.31798 13.7609C5.63298 13.761 5.948 13.7611 6.26308 13.7613L6.26328 13.3613C5.94814 13.3611 5.63308 13.361 5.31808 13.3609C5.00308 13.3608 4.68815 13.3608 4.37323 13.3606L4.37302 13.7606ZM6.26318 13.7613C6.25355 13.7613 6.24578 13.7535 6.24578 13.7439H6.64578C6.64578 13.5326 6.47446 13.3613 6.26318 13.3613V13.7613ZM6.24578 13.7439C6.24578 13.7342 6.25357 13.7264 6.2632 13.7264V14.1264C6.47443 14.1264 6.64585 13.9551 6.64578 13.7438L6.24578 13.7439ZM9.21941 13.7271C9.21883 13.7271 9.21826 13.7271 9.21768 13.7271C9.21711 13.7271 9.21653 13.7271 9.21596 13.7271C9.21538 13.7271 9.21481 13.7271 9.21423 13.7271C9.21366 13.7271 9.21308 13.7271 9.21251 13.7271C9.21193 13.7271 9.21136 13.7271 9.21078 13.7271C9.21021 13.7271 9.20963 13.7271 9.20906 13.7271C9.20849 13.7271 9.20791 13.7271 9.20734 13.7271C9.20676 13.7271 9.20619 13.7271 9.20561 13.7271C9.20504 13.7271 9.20446 13.7271 9.20389 13.7271C9.20331 13.7271 9.20274 13.7271 9.20216 13.7271C9.20159 13.7271 9.20101 13.7271 9.20044 13.7271C9.19986 13.7271 9.19929 13.7271 9.19872 13.7271C9.19814 13.7271 9.19757 13.7271 9.19699 13.7271C9.19642 13.7271 9.19584 13.7271 9.19527 13.7271C9.19469 13.7271 9.19412 13.7271 9.19355 13.7271C9.19297 13.7271 9.1924 13.7271 9.19182 13.7271C9.19125 13.7271 9.19067 13.7271 9.1901 13.7271C9.18953 13.7271 9.18895 13.7271 9.18838 13.7271C9.1878 13.7271 9.18723 13.7271 9.18666 13.7271C9.18608 13.7271 9.18551 13.7271 9.18493 13.7271C9.18436 13.7271 9.18378 13.7271 9.18321 13.7271C9.18264 13.7271 9.18206 13.7271 9.18149 13.7271C9.18091 13.7271 9.18034 13.7271 9.17977 13.7271C9.17919 13.7271 9.17862 13.7271 9.17804 13.7271C9.17747 13.7271 9.1769 13.7271 9.17632 13.7271C9.17575 13.7271 9.17518 13.7271 9.1746 13.7271C9.17403 13.7271 9.17345 13.7271 9.17288 13.7271C9.17231 13.7271 9.17173 13.7271 9.17116 13.7271C9.17059 13.7271 9.17001 13.7271 9.16944 13.7271C9.16887 13.7271 9.16829 13.7271 9.16772 13.7271C9.16714 13.7271 9.16657 13.7271 9.166 13.7271C9.16542 13.7271 9.16485 13.7271 9.16428 13.7271C9.1637 13.7271 9.16313 13.7271 9.16256 13.7271C9.16198 13.7271 9.16141 13.7271 9.16084 13.7271C9.16026 13.7271 9.15969 13.7271 9.15912 13.7271C9.15854 13.7271 9.15797 13.7271 9.1574 13.7271C9.15682 13.7271 9.15625 13.7271 9.15568 13.7271C9.1551 13.7271 9.15453 13.7271 9.15396 13.7271C9.15338 13.7271 9.15281 13.7271 9.15224 13.7271C9.15167 13.7271 9.15109 13.7271 9.15052 13.7271C9.14995 13.7271 9.14937 13.7271 9.1488 13.7271C9.14823 13.7271 9.14765 13.7271 9.14708 13.7271C9.14651 13.7271 9.14594 13.7271 9.14536 13.7271C9.14479 13.7271 9.14422 13.7271 9.14364 13.7271C9.14307 13.7271 9.1425 13.7271 9.14193 13.7271C9.14135 13.7271 9.14078 13.7271 9.14021 13.7271C9.13964 13.7271 9.13906 13.7271 9.13849 13.7271C9.13792 13.7271 9.13734 13.7271 9.13677 13.7271C9.1362 13.7271 9.13563 13.7271 9.13505 13.7271C9.13448 13.7271 9.13391 13.7271 9.13334 13.7271C9.13276 13.7271 9.13219 13.7271 9.13162 13.7271C9.13105 13.7271 9.13048 13.7271 9.1299 13.7271C9.12933 13.7271 9.12876 13.7271 9.12819 13.7271C9.12761 13.7271 9.12704 13.7271 9.12647 13.7271C9.1259 13.7271 9.12532 13.7271 9.12475 13.7271C9.12418 13.7271 9.12361 13.7271 9.12304 13.7271C9.12246 13.7271 9.12189 13.7271 9.12132 13.7271C9.12075 13.7271 9.12017 13.7271 9.1196 13.7271C9.11903 13.7271 9.11846 13.7271 9.11789 13.7271C9.11731 13.7271 9.11674 13.7271 9.11617 13.7271C9.1156 13.7271 9.11503 13.7271 9.11446 13.7271C9.11388 13.7271 9.11331 13.7271 9.11274 13.7271C9.11217 13.7271 9.1116 13.7271 9.11102 13.7271C9.11045 13.7271 9.10988 13.7271 9.10931 13.7271C9.10874 13.7271 9.10817 13.7271 9.10759 13.7271C9.10702 13.7271 9.10645 13.7271 9.10588 13.7271C9.10531 13.7271 9.10474 13.7271 9.10416 13.7271C9.10359 13.7271 9.10302 13.7271 9.10245 13.7271C9.10188 13.7271 9.10131 13.7271 9.10074 13.7271C9.10016 13.7271 9.09959 13.7271 9.09902 13.7271C9.09845 13.7271 9.09788 13.7271 9.09731 13.7271C9.09674 13.7271 9.09616 13.7271 9.09559 13.7271C9.09502 13.7271 9.09445 13.7271 9.09388 13.7271C9.09331 13.7271 9.09274 13.7271 9.09217 13.7271C9.09159 13.7271 9.09102 13.7271 9.09045 13.7271C9.08988 13.7271 9.08931 13.7271 9.08874 13.7271C9.08817 13.7271 9.0876 13.7271 9.08703 13.7271C9.08646 13.7271 9.08588 13.7271 9.08531 13.7271C9.08474 13.7271 9.08417 13.7271 9.0836 13.7271C9.08303 13.7271 9.08246 13.7271 9.08189 13.7271C9.08132 13.7271 9.08075 13.7271 9.08018 13.7271C9.0796 13.7271 9.07903 13.7271 9.07846 13.7271C9.07789 13.7271 9.07732 13.7271 9.07675 13.7271C9.07618 13.7271 9.07561 13.7271 9.07504 13.7271C9.07447 13.7271 9.0739 13.7271 9.07333 13.7271C9.07276 13.7271 9.07219 13.7271 9.07162 13.7271C9.07105 13.7271 9.07048 13.7271 9.0699 13.7271C9.06933 13.7271 9.06876 13.7271 9.06819 13.7271C9.06762 13.7271 9.06705 13.7271 9.06648 13.7271C9.06591 13.7271 9.06534 13.7271 9.06477 13.7271C9.0642 13.7271 9.06363 13.7271 9.06306 13.7271C9.06249 13.7271 9.06192 13.7271 9.06135 13.7271C9.06078 13.7271 9.06021 13.7271 9.05964 13.7271C9.05907 13.7271 9.0585 13.7271 9.05793 13.7271C9.05736 13.7271 9.05679 13.7271 9.05622 13.7271C9.05565 13.7271 9.05508 13.7271 9.05451 13.7271C9.05394 13.7271 9.05337 13.7271 9.0528 13.7271C9.05223 13.7271 9.05166 13.7271 9.05109 13.7271C9.05052 13.7271 9.04995 13.7271 9.04938 13.7271C9.04881 13.7271 9.04824 13.7271 9.04767 13.7271C9.0471 13.7271 9.04653 13.7271 9.04596 13.7271C9.04539 13.7271 9.04482 13.7271 9.04425 13.7271C9.04368 13.7271 9.04311 13.7271 9.04254 13.7271C9.04198 13.7271 9.04141 13.7271 9.04084 13.7271C9.04027 13.7271 9.0397 13.7271 9.03913 13.7271C9.03856 13.7271 9.03799 13.7271 9.03742 13.7271C9.03685 13.7271 9.03628 13.7271 9.03571 13.7271C9.03514 13.7271 9.03457 13.7271 9.034 13.7271C9.03343 13.7271 9.03287 13.7271 9.0323 13.7271C9.03173 13.7271 9.03116 13.7271 9.03059 13.7271C9.03002 13.7271 9.02945 13.7271 9.02888 13.7271C9.02831 13.7271 9.02774 13.7271 9.02717 13.7271C9.0266 13.7271 9.02604 13.7271 9.02547 13.7271C9.0249 13.7271 9.02433 13.7271 9.02376 13.7271C9.02319 13.7271 9.02262 13.7271 9.02205 13.7271C9.02148 13.7271 9.02092 13.7271 9.02035 13.7271C9.01978 13.7271 9.01921 13.7271 9.01864 13.7271C9.01807 13.7271 9.0175 13.7271 9.01693 13.7271C9.01637 13.7271 9.0158 13.7271 9.01523 13.7271C9.01466 13.7271 9.01409 13.7271 9.01352 13.7271C9.01295 13.7271 9.01238 13.7271 9.01182 13.7271C9.01125 13.7271 9.01068 13.7271 9.01011 13.7271C9.00954 13.7271 9.00897 13.7271 9.00841 13.7271C9.00784 13.7271 9.00727 13.7271 9.0067 13.7271C9.00613 13.7271 9.00556 13.7271 9.005 13.7271C9.00443 13.7271 9.00386 13.7271 9.00329 13.7271C9.00272 13.7271 9.00215 13.7271 9.00159 13.7271C9.00102 13.7271 9.00045 13.7271 8.99988 13.7271C8.99931 13.7271 8.99874 13.7271 8.99818 13.7271C8.99761 13.7271 8.99704 13.7271 8.99647 13.7271C8.9959 13.7271 8.99534 13.7271 8.99477 13.7271C8.9942 13.7271 8.99363 13.7271 8.99307 13.7271C8.9925 13.7271 8.99193 13.7271 8.99136 13.7271C8.99079 13.7271 8.99023 13.7271 8.98966 13.7271C8.98909 13.7271 8.98852 13.7271 8.98795 13.7271C8.98739 13.7271 8.98682 13.7271 8.98625 13.7271C8.98568 13.7271 8.98512 13.7271 8.98455 13.7271C8.98398 13.7271 8.98341 13.7271 8.98285 13.7271C8.98228 13.7271 8.98171 13.7271 8.98114 13.7271C8.98058 13.7271 8.98001 13.7271 8.97944 13.7271C8.97887 13.7271 8.97831 13.7271 8.97774 13.7271C8.97717 13.7271 8.9766 13.7271 8.97604 13.7271C8.97547 13.7271 8.9749 13.7271 8.97433 13.7271C8.97377 13.7271 8.9732 13.7271 8.97263 13.7271C8.97207 13.7271 8.9715 13.7271 8.97093 13.7271C8.97036 13.7271 8.9698 13.7271 8.96923 13.7271C8.96866 13.7271 8.9681 13.7271 8.96753 13.7271C8.96696 13.7271 8.96639 13.7271 8.96583 13.7271C8.96526 13.7271 8.96469 13.7271 8.96413 13.7271C8.96356 13.7271 8.96299 13.7271 8.96243 13.7271C8.96186 13.7271 8.96129 13.7271 8.96073 13.7271C8.96016 13.7271 8.95959 13.7271 8.95903 13.7271C8.95846 13.7271 8.95789 13.7271 8.95732 13.7271C8.95676 13.7271 8.95619 13.7271 8.95563 13.7271C8.95506 13.7271 8.95449 13.7271 8.95393 13.7271C8.95336 13.7271 8.95279 13.7271 8.95223 13.7271C8.95166 13.7271 8.95109 13.7271 8.95053 13.7271C8.94996 13.7271 8.94939 13.7271 8.94883 13.7271C8.94826 13.7271 8.94769 13.7271 8.94713 13.7271C8.94656 13.7271 8.94599 13.7271 8.94543 13.7271C8.94486 13.7271 8.9443 13.7271 8.94373 13.7271C8.94316 13.7271 8.9426 13.7271 8.94203 13.7271C8.94146 13.7271 8.9409 13.7271 8.94033 13.7271C8.93977 13.7271 8.9392 13.7271 8.93863 13.7271C8.93807 13.7271 8.9375 13.7271 8.93694 13.7271C8.93637 13.7271 8.9358 13.7271 8.93524 13.7271C8.93467 13.7271 8.93411 13.7271 8.93354 13.7271C8.93297 13.7271 8.93241 13.7271 8.93184 13.7271C8.93128 13.7271 8.93071 13.7271 8.93015 13.7271C8.92958 13.7271 8.92901 13.7271 8.92845 13.7271C8.92788 13.7271 8.92732 13.7271 8.92675 13.7271C8.92619 13.7271 8.92562 13.7271 8.92505 13.7271C8.92449 13.7271 8.92392 13.7271 8.92336 13.7271C8.92279 13.7271 8.92223 13.7271 8.92166 13.7271C8.9211 13.7271 8.92053 13.7271 8.91997 13.7271C8.9194 13.7271 8.91883 13.7271 8.91827 13.7271C8.9177 13.7271 8.91714 13.7271 8.91657 13.7271C8.91601 13.7271 8.91544 13.7271 8.91488 13.7271C8.91431 13.7271 8.91375 13.7271 8.91318 13.7271C8.91262 13.7271 8.91205 13.7271 8.91149 13.7271C8.91092 13.7271 8.91036 13.7271 8.90979 13.7271C8.90923 13.7271 8.90866 13.7271 8.9081 13.7271C8.90753 13.7271 8.90697 13.7271 8.9064 13.7271C8.90584 13.7271 8.90527 13.7271 8.90471 13.7271C8.90414 13.7271 8.90358 13.7271 8.90301 13.7271C8.90245 13.7271 8.90188 13.7271 8.90132 13.7271C8.90075 13.7271 8.90019 13.7271 8.89962 13.7271C8.89906 13.7271 8.89849 13.7271 8.89793 13.7271C8.89736 13.7271 8.8968 13.7271 8.89623 13.7271C8.89567 13.7271 8.89511 13.7271 8.89454 13.7271C8.89398 13.7271 8.89341 13.7271 8.89285 13.7271C8.89228 13.7271 8.89172 13.7271 8.89115 13.7271C8.89059 13.7271 8.89003 13.7271 8.88946 13.7271C8.8889 13.7271 8.88833 13.7271 8.88777 13.7271C8.8872 13.7271 8.88664 13.7271 8.88608 13.7271C8.88551 13.7271 8.88495 13.7271 8.88438 13.7271C8.88382 13.7271 8.88326 13.7271 8.88269 13.7271C8.88213 13.7271 8.88156 13.7271 8.881 13.7271C8.88043 13.7271 8.87987 13.7271 8.87931 13.7271C8.87874 13.7271 8.87818 13.7271 8.87761 13.7271C8.87705 13.7271 8.87649 13.7271 8.87592 13.7271C8.87536 13.7271 8.87479 13.7271 8.87423 13.7271C8.87367 13.7271 8.8731 13.7271 8.87254 13.7271C8.87198 13.7271 8.87141 13.7271 8.87085 13.7271C8.87029 13.7271 8.86972 13.7271 8.86916 13.7271C8.86859 13.7271 8.86803 13.7271 8.86747 13.7271C8.8669 13.7271 8.86634 13.7271 8.86578 13.7271C8.86521 13.7271 8.86465 13.7271 8.86409 13.7271C8.86352 13.7271 8.86296 13.7271 8.8624 13.7271C8.86183 13.7271 8.86127 13.7271 8.86071 13.7271C8.86014 13.7271 8.85958 13.7271 8.85902 13.7271C8.85845 13.7271 8.85789 13.7271 8.85733 13.7271C8.85676 13.7271 8.8562 13.7271 8.85564 13.7271C8.85507 13.7271 8.85451 13.7271 8.85395 13.7271C8.85338 13.7271 8.85282 13.7271 8.85226 13.7271C8.85169 13.7271 8.85113 13.7271 8.85057 13.7271C8.85001 13.7271 8.84944 13.7271 8.84888 13.7271C8.84832 13.7271 8.84775 13.7271 8.84719 13.7271C8.84663 13.7271 8.84607 13.7271 8.8455 13.7271C8.84494 13.7271 8.84438 13.7271 8.84381 13.7271C8.84325 13.7271 8.84269 13.7271 8.84213 13.7271C8.84156 13.7271 8.841 13.7271 8.84044 13.7271C8.83988 13.7271 8.83931 13.7271 8.83875 13.7271C8.83819 13.7271 8.83763 13.7271 8.83706 13.7271C8.8365 13.7271 8.83594 13.7271 8.83538 13.7271C8.83481 13.7271 8.83425 13.7271 8.83369 13.7271C8.83313 13.7271 8.83256 13.7271 8.832 13.7271C8.83144 13.7271 8.83088 13.7271 8.83031 13.7271C8.82975 13.7271 8.82919 13.7271 8.82863 13.7271C8.82807 13.7271 8.8275 13.7271 8.82694 13.7271C8.82638 13.7271 8.82582 13.7271 8.82525 13.7271C8.82469 13.7271 8.82413 13.7271 8.82357 13.7271C8.82301 13.7271 8.82244 13.7271 8.82188 13.7271C8.82132 13.7271 8.82076 13.7271 8.8202 13.7271C8.81963 13.7271 8.81907 13.7271 8.81851 13.7271C8.81795 13.7271 8.81739 13.7271 8.81683 13.7271C8.81626 13.7271 8.8157 13.7271 8.81514 13.7271C8.81458 13.7271 8.81402 13.7271 8.81346 13.7271C8.81289 13.7271 8.81233 13.7271 8.81177 13.7271C8.81121 13.7271 8.81065 13.7271 8.81009 13.7271C8.80952 13.7271 8.80896 13.7271 8.8084 13.7271C8.80784 13.7271 8.80728 13.7271 8.80672 13.7271C8.80616 13.7271 8.80559 13.7271 8.80503 13.7271C8.80447 13.7271 8.80391 13.7271 8.80335 13.7271C8.80279 13.7271 8.80223 13.7271 8.80167 13.7271C8.8011 13.7271 8.80054 13.7271 8.79998 13.7271C8.79942 13.7271 8.79886 13.7271 8.7983 13.7271C8.79774 13.7271 8.79718 13.7271 8.79662 13.7271C8.79605 13.7271 8.79549 13.7271 8.79493 13.7271C8.79437 13.7271 8.79381 13.7271 8.79325 13.7271C8.79269 13.7271 8.79213 13.7271 8.79157 13.7271C8.79101 13.7271 8.79045 13.7271 8.78988 13.7271C8.78932 13.7271 8.78876 13.7271 8.7882 13.7271C8.78764 13.7271 8.78708 13.7271 8.78652 13.7271C8.78596 13.7271 8.7854 13.7271 8.78484 13.7271C8.78428 13.7271 8.78372 13.7271 8.78316 13.7271C8.7826 13.7271 8.78204 13.7271 8.78148 13.7271C8.78091 13.7271 8.78035 13.7271 8.77979 13.7271C8.77923 13.7271 8.77867 13.7271 8.77811 13.7271C8.77755 13.7271 8.77699 13.7271 8.77643 13.7271C8.77587 13.7271 8.77531 13.7271 8.77475 13.7271C8.77419 13.7271 8.77363 13.7271 8.77307 13.7271C8.77251 13.7271 8.77195 13.7271 8.77139 13.7271C8.77083 13.7271 8.77027 13.7271 8.76971 13.7271C8.76915 13.7271 8.76859 13.7271 8.76803 13.7271C8.76747 13.7271 8.76691 13.7271 8.76635 13.7271C8.76579 13.7271 8.76523 13.7271 8.76467 13.7271C8.76411 13.7271 8.76355 13.7271 8.76299 13.7271C8.76243 13.7271 8.76187 13.7271 8.76131 13.7271C8.76075 13.7271 8.76019 13.7271 8.75963 13.7271C8.75907 13.7271 8.75851 13.7271 8.75795 13.7271C8.75739 13.7271 8.75683 13.7271 8.75627 13.7271C8.75571 13.7271 8.75516 13.7271 8.7546 13.7271C8.75404 13.7271 8.75348 13.7271 8.75292 13.7271C8.75236 13.7271 8.7518 13.7271 8.75124 13.7271C8.75068 13.7271 8.75012 13.7271 8.74956 13.7271C8.749 13.7271 8.74844 13.7271 8.74788 13.7271C8.74732 13.7271 8.74677 13.7271 8.74621 13.7271C8.74565 13.7271 8.74509 13.7271 8.74453 13.7271C8.74397 13.7271 8.74341 13.7271 8.74285 13.7271C8.74229 13.7271 8.74173 13.7271 8.74117 13.7271C8.74061 13.7271 8.74006 13.7271 8.7395 13.7271C8.73894 13.7271 8.73838 13.7271 8.73782 13.7271C8.73726 13.7271 8.7367 13.7271 8.73614 13.7271C8.73559 13.7271 8.73503 13.7271 8.73447 13.7271C8.73391 13.7271 8.73335 13.7271 8.73279 13.7271C8.73223 13.7271 8.73167 13.7271 8.73112 13.7271C8.73056 13.7271 8.73 13.7271 8.72944 13.7271C8.72888 13.7271 8.72832 13.7271 8.72776 13.7271C8.72721 13.7271 8.72665 13.7271 8.72609 13.7271C8.72553 13.7271 8.72497 13.7271 8.72441 13.7271C8.72386 13.7271 8.7233 13.7271 8.72274 13.7271C8.72218 13.7271 8.72162 13.7271 8.72106 13.7271C8.72051 13.7271 8.71995 13.7271 8.71939 13.7271C8.71883 13.7271 8.71827 13.7271 8.71771 13.7271C8.71716 13.7271 8.7166 13.7271 8.71604 13.7271C8.71548 13.7271 8.71492 13.7271 8.71437 13.7271C8.71381 13.7271 8.71325 13.7271 8.71269 13.7271C8.71213 13.7271 8.71158 13.7271 8.71102 13.7271C8.71046 13.7271 8.7099 13.7271 8.70935 13.7271C8.70879 13.7271 8.70823 13.7271 8.70767 13.7271C8.70711 13.7271 8.70656 13.7271 8.706 13.7271C8.70544 13.7271 8.70488 13.7271 8.70433 13.7271C8.70377 13.7271 8.70321 13.7271 8.70265 13.7271C8.7021 13.7271 8.70154 13.7271 8.70098 13.7271C8.70042 13.7271 8.69987 13.7271 8.69931 13.7271C8.69875 13.7271 8.69819 13.7271 8.69764 13.7271C8.69708 13.7271 8.69652 13.7271 8.69596 13.7271C8.69541 13.7271 8.69485 13.7271 8.69429 13.7271C8.69374 13.7271 8.69318 13.7271 8.69262 13.7271C8.69206 13.7271 8.69151 13.7271 8.69095 13.7271C8.69039 13.7271 8.68984 13.7271 8.68928 13.7271C8.68872 13.7271 8.68816 13.7271 8.68761 13.7271C8.68705 13.7271 8.68649 13.7271 8.68594 13.7271C8.68538 13.7271 8.68482 13.7271 8.68427 13.7271C8.68371 13.7271 8.68315 13.7271 8.6826 13.7271C8.68204 13.7271 8.68148 13.7271 8.68093 13.7271C8.68037 13.7271 8.67981 13.7271 8.67926 13.7271C8.6787 13.7271 8.67814 13.7271 8.67759 13.7271C8.67703 13.7271 8.67647 13.7271 8.67592 13.7271C8.67536 13.7271 8.6748 13.7271 8.67425 13.7271C8.67369 13.7271 8.67313 13.7271 8.67258 13.7271C8.67202 13.7271 8.67146 13.7271 8.67091 13.7271C8.67035 13.7271 8.6698 13.7271 8.66924 13.7271C8.66868 13.7271 8.66813 13.7271 8.66757 13.7271C8.66701 13.7271 8.66646 13.7271 8.6659 13.7271C8.66535 13.7271 8.66479 13.7271 8.66423 13.7271C8.66368 13.7271 8.66312 13.7271 8.66257 13.7271C8.66201 13.7271 8.66145 13.7271 8.6609 13.7271C8.66034 13.7271 8.65979 13.7271 8.65923 13.7271C8.65867 13.7271 8.65812 13.7271 8.65756 13.7271C8.65701 13.7271 8.65645 13.7271 8.65589 13.7271C8.65534 13.7271 8.65478 13.7271 8.65423 13.7271C8.65367 13.7271 8.65312 13.7271 8.65256 13.7271C8.652 13.7271 8.65145 13.7271 8.65089 13.7271C8.65034 13.7271 8.64978 13.7271 8.64923 13.7271C8.64867 13.7271 8.64812 13.7271 8.64756 13.7271C8.64701 13.7271 8.64645 13.7271 8.64589 13.7271C8.64534 13.7271 8.64478 13.7271 8.64423 13.7271C8.64367 13.7271 8.64312 13.7271 8.64256 13.7271C8.64201 13.7271 8.64145 13.7271 8.6409 13.7271C8.64034 13.7271 8.63979 13.7271 8.63923 13.7271C8.63868 13.7271 8.63812 13.7271 8.63757 13.7271C8.63701 13.7271 8.63646 13.7271 8.6359 13.7271C8.63535 13.7271 8.63479 13.7271 8.63424 13.7271C8.63368 13.7271 8.63313 13.7271 8.63257 13.7271C8.63202 13.7271 8.63146 13.7271 8.63091 13.7271C8.63035 13.7271 8.6298 13.7271 8.62924 13.7271C8.62869 13.7271 8.62813 13.7271 8.62758 13.7271C8.62702 13.7271 8.62647 13.7271 8.62591 13.7271C8.62536 13.7271 8.62481 13.7271 8.62425 13.7271C8.6237 13.7271 8.62314 13.7271 8.62259 13.7271C8.62203 13.7271 8.62148 13.7271 8.62092 13.7271C8.62037 13.7271 8.61982 13.7271 8.61926 13.7271C8.61871 13.7271 8.61815 13.7271 8.6176 13.7271C8.61704 13.7271 8.61649 13.7271 8.61594 13.7271C8.61538 13.7271 8.61483 13.7271 8.61427 13.7271C8.61372 13.7271 8.61316 13.7271 8.61261 13.7271C8.61206 13.7271 8.6115 13.7271 8.61095 13.7271C8.61039 13.7271 8.60984 13.7271 8.60929 13.7271C8.60873 13.7271 8.60818 13.7271 8.60763 13.7271C8.60707 13.7271 8.60652 13.7271 8.60596 13.7271C8.60541 13.7271 8.60486 13.7271 8.6043 13.7271C8.60375 13.7271 8.60319 13.7271 8.60264 13.7271C8.60209 13.7271 8.60153 13.7271 8.60098 13.7271C8.60043 13.7271 8.59987 13.7271 8.59932 13.7271C8.59877 13.7271 8.59821 13.7271 8.59766 13.7271C8.59711 13.7271 8.59655 13.7271 8.596 13.7271C8.59544 13.7271 8.59489 13.7271 8.59434 13.7271C8.59378 13.7271 8.59323 13.7271 8.59268 13.7271C8.59212 13.7271 8.59157 13.7271 8.59102 13.7271C8.59047 13.7271 8.58991 13.7271 8.58936 13.7271C8.58881 13.7271 8.58825 13.7271 8.5877 13.7271C8.58715 13.7271 8.58659 13.7271 8.58604 13.7271C8.58549 13.7271 8.58493 13.7271 8.58438 13.7271C8.58383 13.7271 8.58328 13.7271 8.58272 13.7271C8.58217 13.7271 8.58162 13.7271 8.58106 13.7271C8.58051 13.7271 8.57996 13.7271 8.57941 13.7271C8.57885 13.7271 8.5783 13.7271 8.57775 13.7271C8.57719 13.7271 8.57664 13.7271 8.57609 13.7271C8.57554 13.7271 8.57498 13.7271 8.57443 13.7271C8.57388 13.7271 8.57333 13.7271 8.57277 13.7271C8.57222 13.7271 8.57167 13.7271 8.57112 13.7271C8.57056 13.7271 8.57001 13.7271 8.56946 13.7271C8.56891 13.7271 8.56835 13.7271 8.5678 13.7271C8.56725 13.7271 8.5667 13.7271 8.56615 13.7271C8.56559 13.7271 8.56504 13.7271 8.56449 13.7271C8.56394 13.7271 8.56338 13.7271 8.56283 13.7271C8.56228 13.7271 8.56173 13.7271 8.56118 13.7271C8.56062 13.7271 8.56007 13.7271 8.55952 13.7271C8.55897 13.7271 8.55842 13.7271 8.55786 13.7271C8.55731 13.7271 8.55676 13.7271 8.55621 13.7271C8.55566 13.7271 8.55511 13.7271 8.55455 13.7271C8.554 13.7271 8.55345 13.7271 8.5529 13.7271C8.55235 13.7271 8.5518 13.7271 8.55124 13.7271C8.55069 13.7271 8.55014 13.7271 8.54959 13.7271C8.54904 13.7271 8.54849 13.7271 8.54793 13.7271C8.54738 13.7271 8.54683 13.7271 8.54628 13.7271C8.54573 13.7271 8.54518 13.7271 8.54463 13.7271C8.54407 13.7271 8.54352 13.7271 8.54297 13.7271C8.54242 13.7271 8.54187 13.7271 8.54132 13.7271C8.54077 13.7271 8.54022 13.7271 8.53966 13.7271C8.53911 13.7271 8.53856 13.7271 8.53801 13.7271C8.53746 13.7271 8.53691 13.7271 8.53636 13.7271C8.53581 13.7271 8.53525 13.7271 8.5347 13.7271C8.53415 13.7271 8.5336 13.7271 8.53305 13.7271C8.5325 13.7271 8.53195 13.7271 8.5314 13.7271C8.53085 13.7271 8.5303 13.7271 8.52975 13.7271C8.5292 13.7271 8.52864 13.7271 8.52809 13.7271C8.52754 13.7271 8.52699 13.7271 8.52644 13.7271C8.52589 13.7271 8.52534 13.7271 8.52479 13.7271C8.52424 13.7271 8.52369 13.7271 8.52314 13.7271C8.52259 13.7271 8.52204 13.7271 8.52149 13.7271C8.52094 13.7271 8.52039 13.7271 8.51984 13.7271C8.51929 13.7271 8.51874 13.7271 8.51819 13.7271C8.51763 13.7271 8.51708 13.7271 8.51653 13.7271C8.51598 13.7271 8.51543 13.7271 8.51488 13.7271C8.51433 13.7271 8.51378 13.7271 8.51323 13.7271C8.51268 13.7271 8.51213 13.7271 8.51158 13.7271C8.51103 13.7271 8.51048 13.7271 8.50993 13.7271C8.50938 13.7271 8.50883 13.7271 8.50828 13.7271C8.50773 13.7271 8.50718 13.7271 8.50663 13.7271C8.50608 13.7271 8.50553 13.7271 8.50498 13.7271C8.50443 13.7271 8.50388 13.7271 8.50333 13.7271C8.50279 13.7271 8.50224 13.7271 8.50169 13.7271C8.50114 13.7271 8.50059 13.7271 8.50004 13.7271C8.49949 13.7271 8.49894 13.7271 8.49839 13.7271C8.49784 13.7271 8.49729 13.7271 8.49674 13.7271C8.49619 13.7271 8.49564 13.7271 8.49509 13.7271C8.49454 13.7271 8.49399 13.7271 8.49344 13.7271C8.4929 13.7271 8.49235 13.7271 8.4918 13.7271C8.49125 13.7271 8.4907 13.7271 8.49015 13.7271C8.4896 13.7271 8.48905 13.7271 8.4885 13.7271C8.48795 13.7271 8.4874 13.7271 8.48685 13.7271C8.48631 13.7271 8.48576 13.7271 8.48521 13.7271C8.48466 13.7271 8.48411 13.7271 8.48356 13.7271C8.48301 13.7271 8.48246 13.7271 8.48191 13.7271C8.48137 13.7271 8.48082 13.7271 8.48027 13.7271C8.47972 13.7271 8.47917 13.7271 8.47862 13.7271C8.47807 13.7271 8.47752 13.7271 8.47698 13.7271C8.47643 13.7271 8.47588 13.7271 8.47533 13.7271C8.47478 13.7271 8.47423 13.7271 8.47368 13.7271C8.47314 13.7271 8.47259 13.7271 8.47204 13.7271C8.47149 13.7271 8.47094 13.7271 8.47039 13.7271C8.46985 13.7271 8.4693 13.7271 8.46875 13.7271C8.4682 13.7271 8.46765 13.7271 8.4671 13.7271C8.46656 13.7271 8.46601 13.7271 8.46546 13.7271C8.46491 13.7271 8.46436 13.7271 8.46382 13.7271C8.46327 13.7271 8.46272 13.7271 8.46217 13.7271C8.46162 13.7271 8.46108 13.7271 8.46053 13.7271C8.45998 13.7271 8.45943 13.7271 8.45888 13.7271C8.45834 13.7271 8.45779 13.7271 8.45724 13.7271C8.45669 13.7271 8.45615 13.7271 8.4556 13.7271C8.45505 13.7271 8.4545 13.7271 8.45395 13.7271C8.45341 13.7271 8.45286 13.7271 8.45231 13.7271C8.45176 13.7271 8.45122 13.7271 8.45067 13.7271C8.45012 13.7271 8.44957 13.7271 8.44903 13.7271C8.44848 13.7271 8.44793 13.7271 8.44738 13.7271C8.44684 13.7271 8.44629 13.7271 8.44574 13.7271C8.4452 13.7271 8.44465 13.7271 8.4441 13.7271C8.44355 13.7271 8.44301 13.7271 8.44246 13.7271C8.44191 13.7271 8.44136 13.7271 8.44082 13.7271C8.44027 13.7271 8.43972 13.7271 8.43918 13.7271C8.43863 13.7271 8.43808 13.7271 8.43754 13.7271C8.43699 13.7271 8.43644 13.7271 8.43589 13.7271C8.43535 13.7271 8.4348 13.7271 8.43425 13.7271C8.43371 13.7271 8.43316 13.7271 8.43261 13.7271C8.43207 13.7271 8.43152 13.7271 8.43097 13.7271C8.43043 13.7271 8.42988 13.7271 8.42933 13.7271C8.42879 13.7271 8.42824 13.7271 8.42769 13.7271C8.42715 13.7271 8.4266 13.7271 8.42605 13.7271C8.42551 13.7271 8.42496 13.7271 8.42442 13.7271C8.42387 13.7271 8.42332 13.7271 8.42278 13.7271C8.42223 13.7271 8.42168 13.7271 8.42114 13.7271C8.42059 13.7271 8.42004 13.7271 8.4195 13.7271C8.41895 13.7271 8.41841 13.7271 8.41786 13.7271C8.41731 13.7271 8.41677 13.7271 8.41622 13.7271C8.41568 13.7271 8.41513 13.7271 8.41458 13.7271C8.41404 13.7271 8.41349 13.7271 8.41295 13.7271C8.4124 13.7271 8.41185 13.7271 8.41131 13.7271C8.41076 13.7271 8.41022 13.7271 8.40967 13.7271C8.40912 13.7271 8.40858 13.7271 8.40803 13.7271C8.40749 13.7271 8.40694 13.7271 8.4064 13.7271C8.40585 13.7271 8.4053 13.7271 8.40476 13.7271C8.40421 13.7271 8.40367 13.7271 8.40312 13.7271C8.40258 13.7271 8.40203 13.7271 8.40149 13.7271C8.40094 13.7271 8.4004 13.7271 8.39985 13.7271C8.3993 13.7271 8.39876 13.7271 8.39821 13.7271C8.39767 13.7271 8.39712 13.7271 8.39658 13.7271C8.39603 13.7271 8.39549 13.7271 8.39494 13.7271C8.3944 13.7271 8.39385 13.7271 8.39331 13.7271C8.39276 13.7271 8.39222 13.7271 8.39167 13.7271C8.39113 13.7271 8.39058 13.7271 8.39004 13.7271C8.38949 13.7271 8.38895 13.7271 8.3884 13.7271C8.38786 13.7271 8.38731 13.7271 8.38677 13.7271C8.38622 13.7271 8.38568 13.7271 8.38513 13.7271C8.38459 13.7271 8.38404 13.7271 8.3835 13.7271C8.38296 13.7271 8.38241 13.7271 8.38187 13.7271C8.38132 13.7271 8.38078 13.7271 8.38023 13.7271C8.37969 13.7271 8.37914 13.7271 8.3786 13.7271C8.37805 13.7271 8.37751 13.7271 8.37697 13.7271C8.37642 13.7271 8.37588 13.7271 8.37533 13.7271C8.37479 13.7271 8.37424 13.7271 8.3737 13.7271C8.37316 13.7271 8.37261 13.7271 8.37207 13.7271C8.37152 13.7271 8.37098 13.7271 8.37043 13.7271C8.36989 13.7271 8.36935 13.7271 8.3688 13.7271C8.36826 13.7271 8.36771 13.7271 8.36717 13.7271C8.36663 13.7271 8.36608 13.7271 8.36554 13.7271C8.36499 13.7271 8.36445 13.7271 8.36391 13.7271C8.36336 13.7271 8.36282 13.7271 8.36228 13.7271C8.36173 13.7271 8.36119 13.7271 8.36064 13.7271C8.3601 13.7271 8.35956 13.7271 8.35901 13.7271V14.1271C8.35956 14.1271 8.3601 14.1271 8.36064 14.1271C8.36119 14.1271 8.36173 14.1271 8.36228 14.1271C8.36282 14.1271 8.36336 14.1271 8.36391 14.1271C8.36445 14.1271 8.36499 14.1271 8.36554 14.1271C8.36608 14.1271 8.36663 14.1271 8.36717 14.1271C8.36771 14.1271 8.36826 14.1271 8.3688 14.1271C8.36935 14.1271 8.36989 14.1271 8.37043 14.1271C8.37098 14.1271 8.37152 14.1271 8.37207 14.1271C8.37261 14.1271 8.37316 14.1271 8.3737 14.1271C8.37424 14.1271 8.37479 14.1271 8.37533 14.1271C8.37588 14.1271 8.37642 14.1271 8.37697 14.1271C8.37751 14.1271 8.37805 14.1271 8.3786 14.1271C8.37914 14.1271 8.37969 14.1271 8.38023 14.1271C8.38078 14.1271 8.38132 14.1271 8.38187 14.1271C8.38241 14.1271 8.38296 14.1271 8.3835 14.1271C8.38404 14.1271 8.38459 14.1271 8.38513 14.1271C8.38568 14.1271 8.38622 14.1271 8.38677 14.1271C8.38731 14.1271 8.38786 14.1271 8.3884 14.1271C8.38895 14.1271 8.38949 14.1271 8.39004 14.1271C8.39058 14.1271 8.39113 14.1271 8.39167 14.1271C8.39222 14.1271 8.39276 14.1271 8.39331 14.1271C8.39385 14.1271 8.3944 14.1271 8.39494 14.1271C8.39549 14.1271 8.39603 14.1271 8.39658 14.1271C8.39712 14.1271 8.39767 14.1271 8.39821 14.1271C8.39876 14.1271 8.3993 14.1271 8.39985 14.1271C8.4004 14.1271 8.40094 14.1271 8.40149 14.1271C8.40203 14.1271 8.40258 14.1271 8.40312 14.1271C8.40367 14.1271 8.40421 14.1271 8.40476 14.1271C8.4053 14.1271 8.40585 14.1271 8.4064 14.1271C8.40694 14.1271 8.40749 14.1271 8.40803 14.1271C8.40858 14.1271 8.40912 14.1271 8.40967 14.1271C8.41022 14.1271 8.41076 14.1271 8.41131 14.1271C8.41185 14.1271 8.4124 14.1271 8.41295 14.1271C8.41349 14.1271 8.41404 14.1271 8.41458 14.1271C8.41513 14.1271 8.41568 14.1271 8.41622 14.1271C8.41677 14.1271 8.41731 14.1271 8.41786 14.1271C8.41841 14.1271 8.41895 14.1271 8.4195 14.1271C8.42004 14.1271 8.42059 14.1271 8.42114 14.1271C8.42168 14.1271 8.42223 14.1271 8.42278 14.1271C8.42332 14.1271 8.42387 14.1271 8.42442 14.1271C8.42496 14.1271 8.42551 14.1271 8.42605 14.1271C8.4266 14.1271 8.42715 14.1271 8.42769 14.1271C8.42824 14.1271 8.42879 14.1271 8.42933 14.1271C8.42988 14.1271 8.43043 14.1271 8.43097 14.1271C8.43152 14.1271 8.43207 14.1271 8.43261 14.1271C8.43316 14.1271 8.43371 14.1271 8.43425 14.1271C8.4348 14.1271 8.43535 14.1271 8.43589 14.1271C8.43644 14.1271 8.43699 14.1271 8.43754 14.1271C8.43808 14.1271 8.43863 14.1271 8.43918 14.1271C8.43972 14.1271 8.44027 14.1271 8.44082 14.1271C8.44136 14.1271 8.44191 14.1271 8.44246 14.1271C8.44301 14.1271 8.44355 14.1271 8.4441 14.1271C8.44465 14.1271 8.4452 14.1271 8.44574 14.1271C8.44629 14.1271 8.44684 14.1271 8.44738 14.1271C8.44793 14.1271 8.44848 14.1271 8.44903 14.1271C8.44957 14.1271 8.45012 14.1271 8.45067 14.1271C8.45122 14.1271 8.45176 14.1271 8.45231 14.1271C8.45286 14.1271 8.45341 14.1271 8.45395 14.1271C8.4545 14.1271 8.45505 14.1271 8.4556 14.1271C8.45615 14.1271 8.45669 14.1271 8.45724 14.1271C8.45779 14.1271 8.45834 14.1271 8.45888 14.1271C8.45943 14.1271 8.45998 14.1271 8.46053 14.1271C8.46108 14.1271 8.46162 14.1271 8.46217 14.1271C8.46272 14.1271 8.46327 14.1271 8.46382 14.1271C8.46436 14.1271 8.46491 14.1271 8.46546 14.1271C8.46601 14.1271 8.46656 14.1271 8.4671 14.1271C8.46765 14.1271 8.4682 14.1271 8.46875 14.1271C8.4693 14.1271 8.46985 14.1271 8.47039 14.1271C8.47094 14.1271 8.47149 14.1271 8.47204 14.1271C8.47259 14.1271 8.47314 14.1271 8.47368 14.1271C8.47423 14.1271 8.47478 14.1271 8.47533 14.1271C8.47588 14.1271 8.47643 14.1271 8.47698 14.1271C8.47752 14.1271 8.47807 14.1271 8.47862 14.1271C8.47917 14.1271 8.47972 14.1271 8.48027 14.1271C8.48082 14.1271 8.48137 14.1271 8.48191 14.1271C8.48246 14.1271 8.48301 14.1271 8.48356 14.1271C8.48411 14.1271 8.48466 14.1271 8.48521 14.1271C8.48576 14.1271 8.48631 14.1271 8.48685 14.1271C8.4874 14.1271 8.48795 14.1271 8.4885 14.1271C8.48905 14.1271 8.4896 14.1271 8.49015 14.1271C8.4907 14.1271 8.49125 14.1271 8.4918 14.1271C8.49235 14.1271 8.4929 14.1271 8.49344 14.1271C8.49399 14.1271 8.49454 14.1271 8.49509 14.1271C8.49564 14.1271 8.49619 14.1271 8.49674 14.1271C8.49729 14.1271 8.49784 14.1271 8.49839 14.1271C8.49894 14.1271 8.49949 14.1271 8.50004 14.1271C8.50059 14.1271 8.50114 14.1271 8.50169 14.1271C8.50224 14.1271 8.50279 14.1271 8.50333 14.1271C8.50388 14.1271 8.50443 14.1271 8.50498 14.1271C8.50553 14.1271 8.50608 14.1271 8.50663 14.1271C8.50718 14.1271 8.50773 14.1271 8.50828 14.1271C8.50883 14.1271 8.50938 14.1271 8.50993 14.1271C8.51048 14.1271 8.51103 14.1271 8.51158 14.1271C8.51213 14.1271 8.51268 14.1271 8.51323 14.1271C8.51378 14.1271 8.51433 14.1271 8.51488 14.1271C8.51543 14.1271 8.51598 14.1271 8.51653 14.1271C8.51708 14.1271 8.51763 14.1271 8.51819 14.1271C8.51874 14.1271 8.51929 14.1271 8.51984 14.1271C8.52039 14.1271 8.52094 14.1271 8.52149 14.1271C8.52204 14.1271 8.52259 14.1271 8.52314 14.1271C8.52369 14.1271 8.52424 14.1271 8.52479 14.1271C8.52534 14.1271 8.52589 14.1271 8.52644 14.1271C8.52699 14.1271 8.52754 14.1271 8.52809 14.1271C8.52864 14.1271 8.5292 14.1271 8.52975 14.1271C8.5303 14.1271 8.53085 14.1271 8.5314 14.1271C8.53195 14.1271 8.5325 14.1271 8.53305 14.1271C8.5336 14.1271 8.53415 14.1271 8.5347 14.1271C8.53525 14.1271 8.53581 14.1271 8.53636 14.1271C8.53691 14.1271 8.53746 14.1271 8.53801 14.1271C8.53856 14.1271 8.53911 14.1271 8.53966 14.1271C8.54022 14.1271 8.54077 14.1271 8.54132 14.1271C8.54187 14.1271 8.54242 14.1271 8.54297 14.1271C8.54352 14.1271 8.54407 14.1271 8.54463 14.1271C8.54518 14.1271 8.54573 14.1271 8.54628 14.1271C8.54683 14.1271 8.54738 14.1271 8.54793 14.1271C8.54849 14.1271 8.54904 14.1271 8.54959 14.1271C8.55014 14.1271 8.55069 14.1271 8.55124 14.1271C8.5518 14.1271 8.55235 14.1271 8.5529 14.1271C8.55345 14.1271 8.554 14.1271 8.55455 14.1271C8.55511 14.1271 8.55566 14.1271 8.55621 14.1271C8.55676 14.1271 8.55731 14.1271 8.55786 14.1271C8.55842 14.1271 8.55897 14.1271 8.55952 14.1271C8.56007 14.1271 8.56062 14.1271 8.56118 14.1271C8.56173 14.1271 8.56228 14.1271 8.56283 14.1271C8.56338 14.1271 8.56394 14.1271 8.56449 14.1271C8.56504 14.1271 8.56559 14.1271 8.56615 14.1271C8.5667 14.1271 8.56725 14.1271 8.5678 14.1271C8.56835 14.1271 8.56891 14.1271 8.56946 14.1271C8.57001 14.1271 8.57056 14.1271 8.57112 14.1271C8.57167 14.1271 8.57222 14.1271 8.57277 14.1271C8.57333 14.1271 8.57388 14.1271 8.57443 14.1271C8.57498 14.1271 8.57554 14.1271 8.57609 14.1271C8.57664 14.1271 8.57719 14.1271 8.57775 14.1271C8.5783 14.1271 8.57885 14.1271 8.57941 14.1271C8.57996 14.1271 8.58051 14.1271 8.58106 14.1271C8.58162 14.1271 8.58217 14.1271 8.58272 14.1271C8.58328 14.1271 8.58383 14.1271 8.58438 14.1271C8.58493 14.1271 8.58549 14.1271 8.58604 14.1271C8.58659 14.1271 8.58715 14.1271 8.5877 14.1271C8.58825 14.1271 8.58881 14.1271 8.58936 14.1271C8.58991 14.1271 8.59047 14.1271 8.59102 14.1271C8.59157 14.1271 8.59212 14.1271 8.59268 14.1271C8.59323 14.1271 8.59378 14.1271 8.59434 14.1271C8.59489 14.1271 8.59544 14.1271 8.596 14.1271C8.59655 14.1271 8.59711 14.1271 8.59766 14.1271C8.59821 14.1271 8.59877 14.1271 8.59932 14.1271C8.59987 14.1271 8.60043 14.1271 8.60098 14.1271C8.60153 14.1271 8.60209 14.1271 8.60264 14.1271C8.60319 14.1271 8.60375 14.1271 8.6043 14.1271C8.60486 14.1271 8.60541 14.1271 8.60596 14.1271C8.60652 14.1271 8.60707 14.1271 8.60763 14.1271C8.60818 14.1271 8.60873 14.1271 8.60929 14.1271C8.60984 14.1271 8.61039 14.1271 8.61095 14.1271C8.6115 14.1271 8.61206 14.1271 8.61261 14.1271C8.61316 14.1271 8.61372 14.1271 8.61427 14.1271C8.61483 14.1271 8.61538 14.1271 8.61594 14.1271C8.61649 14.1271 8.61704 14.1271 8.6176 14.1271C8.61815 14.1271 8.61871 14.1271 8.61926 14.1271C8.61982 14.1271 8.62037 14.1271 8.62092 14.1271C8.62148 14.1271 8.62203 14.1271 8.62259 14.1271C8.62314 14.1271 8.6237 14.1271 8.62425 14.1271C8.62481 14.1271 8.62536 14.1271 8.62591 14.1271C8.62647 14.1271 8.62702 14.1271 8.62758 14.1271C8.62813 14.1271 8.62869 14.1271 8.62924 14.1271C8.6298 14.1271 8.63035 14.1271 8.63091 14.1271C8.63146 14.1271 8.63202 14.1271 8.63257 14.1271C8.63313 14.1271 8.63368 14.1271 8.63424 14.1271C8.63479 14.1271 8.63535 14.1271 8.6359 14.1271C8.63646 14.1271 8.63701 14.1271 8.63757 14.1271C8.63812 14.1271 8.63868 14.1271 8.63923 14.1271C8.63979 14.1271 8.64034 14.1271 8.6409 14.1271C8.64145 14.1271 8.64201 14.1271 8.64256 14.1271C8.64312 14.1271 8.64367 14.1271 8.64423 14.1271C8.64478 14.1271 8.64534 14.1271 8.64589 14.1271C8.64645 14.1271 8.64701 14.1271 8.64756 14.1271C8.64812 14.1271 8.64867 14.1271 8.64923 14.1271C8.64978 14.1271 8.65034 14.1271 8.65089 14.1271C8.65145 14.1271 8.652 14.1271 8.65256 14.1271C8.65312 14.1271 8.65367 14.1271 8.65423 14.1271C8.65478 14.1271 8.65534 14.1271 8.65589 14.1271C8.65645 14.1271 8.65701 14.1271 8.65756 14.1271C8.65812 14.1271 8.65867 14.1271 8.65923 14.1271C8.65979 14.1271 8.66034 14.1271 8.6609 14.1271C8.66145 14.1271 8.66201 14.1271 8.66257 14.1271C8.66312 14.1271 8.66368 14.1271 8.66423 14.1271C8.66479 14.1271 8.66535 14.1271 8.6659 14.1271C8.66646 14.1271 8.66701 14.1271 8.66757 14.1271C8.66813 14.1271 8.66868 14.1271 8.66924 14.1271C8.6698 14.1271 8.67035 14.1271 8.67091 14.1271C8.67146 14.1271 8.67202 14.1271 8.67258 14.1271C8.67313 14.1271 8.67369 14.1271 8.67425 14.1271C8.6748 14.1271 8.67536 14.1271 8.67592 14.1271C8.67647 14.1271 8.67703 14.1271 8.67759 14.1271C8.67814 14.1271 8.6787 14.1271 8.67926 14.1271C8.67981 14.1271 8.68037 14.1271 8.68093 14.1271C8.68148 14.1271 8.68204 14.1271 8.6826 14.1271C8.68315 14.1271 8.68371 14.1271 8.68427 14.1271C8.68482 14.1271 8.68538 14.1271 8.68594 14.1271C8.68649 14.1271 8.68705 14.1271 8.68761 14.1271C8.68816 14.1271 8.68872 14.1271 8.68928 14.1271C8.68984 14.1271 8.69039 14.1271 8.69095 14.1271C8.69151 14.1271 8.69206 14.1271 8.69262 14.1271C8.69318 14.1271 8.69374 14.1271 8.69429 14.1271C8.69485 14.1271 8.69541 14.1271 8.69596 14.1271C8.69652 14.1271 8.69708 14.1271 8.69764 14.1271C8.69819 14.1271 8.69875 14.1271 8.69931 14.1271C8.69987 14.1271 8.70042 14.1271 8.70098 14.1271C8.70154 14.1271 8.7021 14.1271 8.70265 14.1271C8.70321 14.1271 8.70377 14.1271 8.70433 14.1271C8.70488 14.1271 8.70544 14.1271 8.706 14.1271C8.70656 14.1271 8.70711 14.1271 8.70767 14.1271C8.70823 14.1271 8.70879 14.1271 8.70935 14.1271C8.7099 14.1271 8.71046 14.1271 8.71102 14.1271C8.71158 14.1271 8.71213 14.1271 8.71269 14.1271C8.71325 14.1271 8.71381 14.1271 8.71437 14.1271C8.71492 14.1271 8.71548 14.1271 8.71604 14.1271C8.7166 14.1271 8.71716 14.1271 8.71771 14.1271C8.71827 14.1271 8.71883 14.1271 8.71939 14.1271C8.71995 14.1271 8.72051 14.1271 8.72106 14.1271C8.72162 14.1271 8.72218 14.1271 8.72274 14.1271C8.7233 14.1271 8.72386 14.1271 8.72441 14.1271C8.72497 14.1271 8.72553 14.1271 8.72609 14.1271C8.72665 14.1271 8.72721 14.1271 8.72776 14.1271C8.72832 14.1271 8.72888 14.1271 8.72944 14.1271C8.73 14.1271 8.73056 14.1271 8.73112 14.1271C8.73167 14.1271 8.73223 14.1271 8.73279 14.1271C8.73335 14.1271 8.73391 14.1271 8.73447 14.1271C8.73503 14.1271 8.73559 14.1271 8.73614 14.1271C8.7367 14.1271 8.73726 14.1271 8.73782 14.1271C8.73838 14.1271 8.73894 14.1271 8.7395 14.1271C8.74006 14.1271 8.74061 14.1271 8.74117 14.1271C8.74173 14.1271 8.74229 14.1271 8.74285 14.1271C8.74341 14.1271 8.74397 14.1271 8.74453 14.1271C8.74509 14.1271 8.74565 14.1271 8.74621 14.1271C8.74677 14.1271 8.74732 14.1271 8.74788 14.1271C8.74844 14.1271 8.749 14.1271 8.74956 14.1271C8.75012 14.1271 8.75068 14.1271 8.75124 14.1271C8.7518 14.1271 8.75236 14.1271 8.75292 14.1271C8.75348 14.1271 8.75404 14.1271 8.7546 14.1271C8.75516 14.1271 8.75571 14.1271 8.75627 14.1271C8.75683 14.1271 8.75739 14.1271 8.75795 14.1271C8.75851 14.1271 8.75907 14.1271 8.75963 14.1271C8.76019 14.1271 8.76075 14.1271 8.76131 14.1271C8.76187 14.1271 8.76243 14.1271 8.76299 14.1271C8.76355 14.1271 8.76411 14.1271 8.76467 14.1271C8.76523 14.1271 8.76579 14.1271 8.76635 14.1271C8.76691 14.1271 8.76747 14.1271 8.76803 14.1271C8.76859 14.1271 8.76915 14.1271 8.76971 14.1271C8.77027 14.1271 8.77083 14.1271 8.77139 14.1271C8.77195 14.1271 8.77251 14.1271 8.77307 14.1271C8.77363 14.1271 8.77419 14.1271 8.77475 14.1271C8.77531 14.1271 8.77587 14.1271 8.77643 14.1271C8.77699 14.1271 8.77755 14.1271 8.77811 14.1271C8.77867 14.1271 8.77923 14.1271 8.77979 14.1271C8.78035 14.1271 8.78091 14.1271 8.78148 14.1271C8.78204 14.1271 8.7826 14.1271 8.78316 14.1271C8.78372 14.1271 8.78428 14.1271 8.78484 14.1271C8.7854 14.1271 8.78596 14.1271 8.78652 14.1271C8.78708 14.1271 8.78764 14.1271 8.7882 14.1271C8.78876 14.1271 8.78932 14.1271 8.78988 14.1271C8.79045 14.1271 8.79101 14.1271 8.79157 14.1271C8.79213 14.1271 8.79269 14.1271 8.79325 14.1271C8.79381 14.1271 8.79437 14.1271 8.79493 14.1271C8.79549 14.1271 8.79605 14.1271 8.79662 14.1271C8.79718 14.1271 8.79774 14.1271 8.7983 14.1271C8.79886 14.1271 8.79942 14.1271 8.79998 14.1271C8.80054 14.1271 8.8011 14.1271 8.80167 14.1271C8.80223 14.1271 8.80279 14.1271 8.80335 14.1271C8.80391 14.1271 8.80447 14.1271 8.80503 14.1271C8.80559 14.1271 8.80616 14.1271 8.80672 14.1271C8.80728 14.1271 8.80784 14.1271 8.8084 14.1271C8.80896 14.1271 8.80952 14.1271 8.81009 14.1271C8.81065 14.1271 8.81121 14.1271 8.81177 14.1271C8.81233 14.1271 8.81289 14.1271 8.81346 14.1271C8.81402 14.1271 8.81458 14.1271 8.81514 14.1271C8.8157 14.1271 8.81626 14.1271 8.81683 14.1271C8.81739 14.1271 8.81795 14.1271 8.81851 14.1271C8.81907 14.1271 8.81963 14.1271 8.8202 14.1271C8.82076 14.1271 8.82132 14.1271 8.82188 14.1271C8.82244 14.1271 8.82301 14.1271 8.82357 14.1271C8.82413 14.1271 8.82469 14.1271 8.82525 14.1271C8.82582 14.1271 8.82638 14.1271 8.82694 14.1271C8.8275 14.1271 8.82807 14.1271 8.82863 14.1271C8.82919 14.1271 8.82975 14.1271 8.83031 14.1271C8.83088 14.1271 8.83144 14.1271 8.832 14.1271C8.83256 14.1271 8.83313 14.1271 8.83369 14.1271C8.83425 14.1271 8.83481 14.1271 8.83538 14.1271C8.83594 14.1271 8.8365 14.1271 8.83706 14.1271C8.83763 14.1271 8.83819 14.1271 8.83875 14.1271C8.83931 14.1271 8.83988 14.1271 8.84044 14.1271C8.841 14.1271 8.84156 14.1271 8.84213 14.1271C8.84269 14.1271 8.84325 14.1271 8.84381 14.1271C8.84438 14.1271 8.84494 14.1271 8.8455 14.1271C8.84607 14.1271 8.84663 14.1271 8.84719 14.1271C8.84775 14.1271 8.84832 14.1271 8.84888 14.1271C8.84944 14.1271 8.85001 14.1271 8.85057 14.1271C8.85113 14.1271 8.85169 14.1271 8.85226 14.1271C8.85282 14.1271 8.85338 14.1271 8.85395 14.1271C8.85451 14.1271 8.85507 14.1271 8.85564 14.1271C8.8562 14.1271 8.85676 14.1271 8.85733 14.1271C8.85789 14.1271 8.85845 14.1271 8.85902 14.1271C8.85958 14.1271 8.86014 14.1271 8.86071 14.1271C8.86127 14.1271 8.86183 14.1271 8.8624 14.1271C8.86296 14.1271 8.86352 14.1271 8.86409 14.1271C8.86465 14.1271 8.86521 14.1271 8.86578 14.1271C8.86634 14.1271 8.8669 14.1271 8.86747 14.1271C8.86803 14.1271 8.86859 14.1271 8.86916 14.1271C8.86972 14.1271 8.87029 14.1271 8.87085 14.1271C8.87141 14.1271 8.87198 14.1271 8.87254 14.1271C8.8731 14.1271 8.87367 14.1271 8.87423 14.1271C8.87479 14.1271 8.87536 14.1271 8.87592 14.1271C8.87649 14.1271 8.87705 14.1271 8.87761 14.1271C8.87818 14.1271 8.87874 14.1271 8.87931 14.1271C8.87987 14.1271 8.88043 14.1271 8.881 14.1271C8.88156 14.1271 8.88213 14.1271 8.88269 14.1271C8.88326 14.1271 8.88382 14.1271 8.88438 14.1271C8.88495 14.1271 8.88551 14.1271 8.88608 14.1271C8.88664 14.1271 8.8872 14.1271 8.88777 14.1271C8.88833 14.1271 8.8889 14.1271 8.88946 14.1271C8.89003 14.1271 8.89059 14.1271 8.89115 14.1271C8.89172 14.1271 8.89228 14.1271 8.89285 14.1271C8.89341 14.1271 8.89398 14.1271 8.89454 14.1271C8.89511 14.1271 8.89567 14.1271 8.89623 14.1271C8.8968 14.1271 8.89736 14.1271 8.89793 14.1271C8.89849 14.1271 8.89906 14.1271 8.89962 14.1271C8.90019 14.1271 8.90075 14.1271 8.90132 14.1271C8.90188 14.1271 8.90245 14.1271 8.90301 14.1271C8.90358 14.1271 8.90414 14.1271 8.90471 14.1271C8.90527 14.1271 8.90584 14.1271 8.9064 14.1271C8.90697 14.1271 8.90753 14.1271 8.9081 14.1271C8.90866 14.1271 8.90923 14.1271 8.90979 14.1271C8.91036 14.1271 8.91092 14.1271 8.91149 14.1271C8.91205 14.1271 8.91262 14.1271 8.91318 14.1271C8.91375 14.1271 8.91431 14.1271 8.91488 14.1271C8.91544 14.1271 8.91601 14.1271 8.91657 14.1271C8.91714 14.1271 8.9177 14.1271 8.91827 14.1271C8.91883 14.1271 8.9194 14.1271 8.91997 14.1271C8.92053 14.1271 8.9211 14.1271 8.92166 14.1271C8.92223 14.1271 8.92279 14.1271 8.92336 14.1271C8.92392 14.1271 8.92449 14.1271 8.92505 14.1271C8.92562 14.1271 8.92619 14.1271 8.92675 14.1271C8.92732 14.1271 8.92788 14.1271 8.92845 14.1271C8.92901 14.1271 8.92958 14.1271 8.93015 14.1271C8.93071 14.1271 8.93128 14.1271 8.93184 14.1271C8.93241 14.1271 8.93297 14.1271 8.93354 14.1271C8.93411 14.1271 8.93467 14.1271 8.93524 14.1271C8.9358 14.1271 8.93637 14.1271 8.93694 14.1271C8.9375 14.1271 8.93807 14.1271 8.93863 14.1271C8.9392 14.1271 8.93977 14.1271 8.94033 14.1271C8.9409 14.1271 8.94146 14.1271 8.94203 14.1271C8.9426 14.1271 8.94316 14.1271 8.94373 14.1271C8.9443 14.1271 8.94486 14.1271 8.94543 14.1271C8.94599 14.1271 8.94656 14.1271 8.94713 14.1271C8.94769 14.1271 8.94826 14.1271 8.94883 14.1271C8.94939 14.1271 8.94996 14.1271 8.95053 14.1271C8.95109 14.1271 8.95166 14.1271 8.95223 14.1271C8.95279 14.1271 8.95336 14.1271 8.95393 14.1271C8.95449 14.1271 8.95506 14.1271 8.95563 14.1271C8.95619 14.1271 8.95676 14.1271 8.95732 14.1271C8.95789 14.1271 8.95846 14.1271 8.95903 14.1271C8.95959 14.1271 8.96016 14.1271 8.96073 14.1271C8.96129 14.1271 8.96186 14.1271 8.96243 14.1271C8.96299 14.1271 8.96356 14.1271 8.96413 14.1271C8.96469 14.1271 8.96526 14.1271 8.96583 14.1271C8.96639 14.1271 8.96696 14.1271 8.96753 14.1271C8.9681 14.1271 8.96866 14.1271 8.96923 14.1271C8.9698 14.1271 8.97036 14.1271 8.97093 14.1271C8.9715 14.1271 8.97207 14.1271 8.97263 14.1271C8.9732 14.1271 8.97377 14.1271 8.97433 14.1271C8.9749 14.1271 8.97547 14.1271 8.97604 14.1271C8.9766 14.1271 8.97717 14.1271 8.97774 14.1271C8.97831 14.1271 8.97887 14.1271 8.97944 14.1271C8.98001 14.1271 8.98058 14.1271 8.98114 14.1271C8.98171 14.1271 8.98228 14.1271 8.98285 14.1271C8.98341 14.1271 8.98398 14.1271 8.98455 14.1271C8.98512 14.1271 8.98568 14.1271 8.98625 14.1271C8.98682 14.1271 8.98739 14.1271 8.98795 14.1271C8.98852 14.1271 8.98909 14.1271 8.98966 14.1271C8.99023 14.1271 8.99079 14.1271 8.99136 14.1271C8.99193 14.1271 8.9925 14.1271 8.99307 14.1271C8.99363 14.1271 8.9942 14.1271 8.99477 14.1271C8.99534 14.1271 8.9959 14.1271 8.99647 14.1271C8.99704 14.1271 8.99761 14.1271 8.99818 14.1271C8.99874 14.1271 8.99931 14.1271 8.99988 14.1271C9.00045 14.1271 9.00102 14.1271 9.00159 14.1271C9.00215 14.1271 9.00272 14.1271 9.00329 14.1271C9.00386 14.1271 9.00443 14.1271 9.005 14.1271C9.00556 14.1271 9.00613 14.1271 9.0067 14.1271C9.00727 14.1271 9.00784 14.1271 9.00841 14.1271C9.00897 14.1271 9.00954 14.1271 9.01011 14.1271C9.01068 14.1271 9.01125 14.1271 9.01182 14.1271C9.01238 14.1271 9.01295 14.1271 9.01352 14.1271C9.01409 14.1271 9.01466 14.1271 9.01523 14.1271C9.0158 14.1271 9.01637 14.1271 9.01693 14.1271C9.0175 14.1271 9.01807 14.1271 9.01864 14.1271C9.01921 14.1271 9.01978 14.1271 9.02035 14.1271C9.02092 14.1271 9.02148 14.1271 9.02205 14.1271C9.02262 14.1271 9.02319 14.1271 9.02376 14.1271C9.02433 14.1271 9.0249 14.1271 9.02547 14.1271C9.02604 14.1271 9.0266 14.1271 9.02717 14.1271C9.02774 14.1271 9.02831 14.1271 9.02888 14.1271C9.02945 14.1271 9.03002 14.1271 9.03059 14.1271C9.03116 14.1271 9.03173 14.1271 9.0323 14.1271C9.03287 14.1271 9.03343 14.1271 9.034 14.1271C9.03457 14.1271 9.03514 14.1271 9.03571 14.1271C9.03628 14.1271 9.03685 14.1271 9.03742 14.1271C9.03799 14.1271 9.03856 14.1271 9.03913 14.1271C9.0397 14.1271 9.04027 14.1271 9.04084 14.1271C9.04141 14.1271 9.04198 14.1271 9.04254 14.1271C9.04311 14.1271 9.04368 14.1271 9.04425 14.1271C9.04482 14.1271 9.04539 14.1271 9.04596 14.1271C9.04653 14.1271 9.0471 14.1271 9.04767 14.1271C9.04824 14.1271 9.04881 14.1271 9.04938 14.1271C9.04995 14.1271 9.05052 14.1271 9.05109 14.1271C9.05166 14.1271 9.05223 14.1271 9.0528 14.1271C9.05337 14.1271 9.05394 14.1271 9.05451 14.1271C9.05508 14.1271 9.05565 14.1271 9.05622 14.1271C9.05679 14.1271 9.05736 14.1271 9.05793 14.1271C9.0585 14.1271 9.05907 14.1271 9.05964 14.1271C9.06021 14.1271 9.06078 14.1271 9.06135 14.1271C9.06192 14.1271 9.06249 14.1271 9.06306 14.1271C9.06363 14.1271 9.0642 14.1271 9.06477 14.1271C9.06534 14.1271 9.06591 14.1271 9.06648 14.1271C9.06705 14.1271 9.06762 14.1271 9.06819 14.1271C9.06876 14.1271 9.06933 14.1271 9.0699 14.1271C9.07048 14.1271 9.07105 14.1271 9.07162 14.1271C9.07219 14.1271 9.07276 14.1271 9.07333 14.1271C9.0739 14.1271 9.07447 14.1271 9.07504 14.1271C9.07561 14.1271 9.07618 14.1271 9.07675 14.1271C9.07732 14.1271 9.07789 14.1271 9.07846 14.1271C9.07903 14.1271 9.0796 14.1271 9.08018 14.1271C9.08075 14.1271 9.08132 14.1271 9.08189 14.1271C9.08246 14.1271 9.08303 14.1271 9.0836 14.1271C9.08417 14.1271 9.08474 14.1271 9.08531 14.1271C9.08588 14.1271 9.08646 14.1271 9.08703 14.1271C9.0876 14.1271 9.08817 14.1271 9.08874 14.1271C9.08931 14.1271 9.08988 14.1271 9.09045 14.1271C9.09102 14.1271 9.09159 14.1271 9.09217 14.1271C9.09274 14.1271 9.09331 14.1271 9.09388 14.1271C9.09445 14.1271 9.09502 14.1271 9.09559 14.1271C9.09616 14.1271 9.09674 14.1271 9.09731 14.1271C9.09788 14.1271 9.09845 14.1271 9.09902 14.1271C9.09959 14.1271 9.10016 14.1271 9.10074 14.1271C9.10131 14.1271 9.10188 14.1271 9.10245 14.1271C9.10302 14.1271 9.10359 14.1271 9.10416 14.1271C9.10474 14.1271 9.10531 14.1271 9.10588 14.1271C9.10645 14.1271 9.10702 14.1271 9.10759 14.1271C9.10817 14.1271 9.10874 14.1271 9.10931 14.1271C9.10988 14.1271 9.11045 14.1271 9.11102 14.1271C9.1116 14.1271 9.11217 14.1271 9.11274 14.1271C9.11331 14.1271 9.11388 14.1271 9.11446 14.1271C9.11503 14.1271 9.1156 14.1271 9.11617 14.1271C9.11674 14.1271 9.11731 14.1271 9.11789 14.1271C9.11846 14.1271 9.11903 14.1271 9.1196 14.1271C9.12017 14.1271 9.12075 14.1271 9.12132 14.1271C9.12189 14.1271 9.12246 14.1271 9.12304 14.1271C9.12361 14.1271 9.12418 14.1271 9.12475 14.1271C9.12532 14.1271 9.1259 14.1271 9.12647 14.1271C9.12704 14.1271 9.12761 14.1271 9.12819 14.1271C9.12876 14.1271 9.12933 14.1271 9.1299 14.1271C9.13048 14.1271 9.13105 14.1271 9.13162 14.1271C9.13219 14.1271 9.13276 14.1271 9.13334 14.1271C9.13391 14.1271 9.13448 14.1271 9.13505 14.1271C9.13563 14.1271 9.1362 14.1271 9.13677 14.1271C9.13734 14.1271 9.13792 14.1271 9.13849 14.1271C9.13906 14.1271 9.13964 14.1271 9.14021 14.1271C9.14078 14.1271 9.14135 14.1271 9.14193 14.1271C9.1425 14.1271 9.14307 14.1271 9.14364 14.1271C9.14422 14.1271 9.14479 14.1271 9.14536 14.1271C9.14594 14.1271 9.14651 14.1271 9.14708 14.1271C9.14765 14.1271 9.14823 14.1271 9.1488 14.1271C9.14937 14.1271 9.14995 14.1271 9.15052 14.1271C9.15109 14.1271 9.15167 14.1271 9.15224 14.1271C9.15281 14.1271 9.15338 14.1271 9.15396 14.1271C9.15453 14.1271 9.1551 14.1271 9.15568 14.1271C9.15625 14.1271 9.15682 14.1271 9.1574 14.1271C9.15797 14.1271 9.15854 14.1271 9.15912 14.1271C9.15969 14.1271 9.16026 14.1271 9.16084 14.1271C9.16141 14.1271 9.16198 14.1271 9.16256 14.1271C9.16313 14.1271 9.1637 14.1271 9.16428 14.1271C9.16485 14.1271 9.16542 14.1271 9.166 14.1271C9.16657 14.1271 9.16714 14.1271 9.16772 14.1271C9.16829 14.1271 9.16887 14.1271 9.16944 14.1271C9.17001 14.1271 9.17059 14.1271 9.17116 14.1271C9.17173 14.1271 9.17231 14.1271 9.17288 14.1271C9.17345 14.1271 9.17403 14.1271 9.1746 14.1271C9.17518 14.1271 9.17575 14.1271 9.17632 14.1271C9.1769 14.1271 9.17747 14.1271 9.17804 14.1271C9.17862 14.1271 9.17919 14.1271 9.17977 14.1271C9.18034 14.1271 9.18091 14.1271 9.18149 14.1271C9.18206 14.1271 9.18264 14.1271 9.18321 14.1271C9.18378 14.1271 9.18436 14.1271 9.18493 14.1271C9.18551 14.1271 9.18608 14.1271 9.18666 14.1271C9.18723 14.1271 9.1878 14.1271 9.18838 14.1271C9.18895 14.1271 9.18953 14.1271 9.1901 14.1271C9.19067 14.1271 9.19125 14.1271 9.19182 14.1271C9.1924 14.1271 9.19297 14.1271 9.19355 14.1271C9.19412 14.1271 9.19469 14.1271 9.19527 14.1271C9.19584 14.1271 9.19642 14.1271 9.19699 14.1271C9.19757 14.1271 9.19814 14.1271 9.19872 14.1271C9.19929 14.1271 9.19986 14.1271 9.20044 14.1271C9.20101 14.1271 9.20159 14.1271 9.20216 14.1271C9.20274 14.1271 9.20331 14.1271 9.20389 14.1271C9.20446 14.1271 9.20504 14.1271 9.20561 14.1271C9.20619 14.1271 9.20676 14.1271 9.20734 14.1271C9.20791 14.1271 9.20849 14.1271 9.20906 14.1271C9.20963 14.1271 9.21021 14.1271 9.21078 14.1271C9.21136 14.1271 9.21193 14.1271 9.21251 14.1271C9.21308 14.1271 9.21366 14.1271 9.21423 14.1271C9.21481 14.1271 9.21538 14.1271 9.21596 14.1271C9.21653 14.1271 9.21711 14.1271 9.21768 14.1271C9.21826 14.1271 9.21883 14.1271 9.21941 14.1271V13.7271ZM8.35901 13.7271C8.36861 13.7271 8.37638 13.7348 8.37638 13.7445H7.97638C7.97638 13.9558 8.14783 14.1271 8.35901 14.1271V13.7271ZM8.37638 13.7445C8.37638 13.7541 8.36868 13.7619 8.35901 13.7619V13.3619C8.14769 13.3619 7.97645 13.5332 7.97638 13.7444L8.37638 13.7445ZM8.35897 13.7619C9.9324 13.7622 11.7903 13.7619 13.641 13.7578L13.6401 13.3578C11.7899 13.3619 9.9324 13.3622 8.35905 13.3619L8.35897 13.7619ZM13.6406 13.7578C13.6321 13.7578 13.6235 13.7508 13.6235 13.7397H14.0235C14.0235 13.5276 13.8508 13.3578 13.6406 13.3578V13.7578ZM13.6235 13.7405C13.6234 13.7309 13.6314 13.723 13.6409 13.723L13.6422 14.123C13.8532 14.1223 14.0243 13.9508 14.0235 13.7389L13.6235 13.7405ZM13.6411 13.723C12.1181 13.7264 10.5898 13.7271 9.21941 13.7271V14.1271C10.5899 14.1271 12.1185 14.1264 13.642 14.123L13.6411 13.723Z" fill="#CF5A0D" mask="url(#path-4-outside-1_1727_19)"/>
<path d="M16.1425 11.5861H16.1424L8.66019 11.5776L8.66007 11.5776L8.66019 11.4776L16.1425 11.5861ZM16.1425 11.5861C16.2738 11.5861 16.3879 11.4959 16.4177 11.3678M16.1425 11.5861L13.5759 9.98853M9.7063 10.5789L9.70633 10.5789L9.71168 10.5766C10.2854 10.3357 10.8873 10.0831 11.4779 9.93861L11.5016 10.0357L11.4778 9.93863C11.83 9.85211 12.1756 9.81659 12.5337 9.82962M9.7063 10.5789L12.5337 9.82962M9.7063 10.5789C9.32846 10.7376 8.94136 10.8998 8.56878 11.0276L9.7063 10.5789ZM12.5337 9.82962C12.8576 9.841 13.1988 9.89371 13.5759 9.98853M12.5337 9.82962L13.5759 9.98853M13.5759 9.98853L13.5759 9.98854C14.5666 10.2383 15.5892 10.7155 16.2676 11.0499L16.2678 11.05C16.3853 11.1083 16.4477 11.2397 16.4177 11.3678M16.4177 11.3678L16.3204 11.345M16.4177 11.3678C16.4177 11.3678 16.4177 11.3678 16.4177 11.3677L16.3204 11.345M16.3204 11.345C16.3011 11.4278 16.2275 11.4861 16.1425 11.4861L16.2233 11.1396C16.2994 11.1773 16.3397 11.2623 16.3204 11.345ZM11.6122 10.4877L11.6123 10.4876C11.9135 10.4137 12.2077 10.3833 12.5134 10.3944C12.7941 10.4045 13.0965 10.4508 13.4377 10.5366C13.9102 10.6557 14.3954 10.8319 14.8457 11.0194L10.1307 11.0139C10.6293 10.8058 11.132 10.605 11.6122 10.4877Z" fill="#CF5A0D" stroke="#CF5A0D" stroke-width="0.2"/>
<path d="M12.2525 11.2994V11.2994L12.2525 10.1118L12.2525 11.2994ZM12.2525 11.2994C12.2525 11.4554 12.3792 11.582 12.5351 11.582C12.6912 11.582 12.8177 11.4554 12.8177 11.2994V11.2994M12.2525 11.2994L12.8177 11.2994M12.8177 11.2994L12.8177 10.1118L12.8177 11.2994ZM12.5351 9.8292C12.3791 9.8292 12.2525 9.9558 12.2525 10.1118L12.8177 10.1118C12.8177 9.95579 12.6912 9.8292 12.5351 9.8292Z" fill="#CF5A0D" stroke="#CF5A0D" stroke-width="0.2"/>
<path d="M6.26127 10.911C6.16332 10.8882 6.06504 10.9491 6.04159 11.047C6.04001 11.0537 5.87711 11.7194 5.35618 12.0266L6.26127 10.911ZM6.26127 10.911C6.35929 10.9342 6.4201 11.0318 6.39727 11.1301M6.26127 10.911L6.39727 11.1301M6.49472 11.1525C6.52992 11.0005 6.43568 10.8494 6.28423 10.8137L6.28397 10.8137C6.13227 10.7783 5.98055 10.8725 5.94434 11.0238L5.94431 11.0239C5.94431 11.0239 5.94431 11.0239 5.94429 11.024C5.9433 11.028 5.90413 11.1856 5.80476 11.3783C5.70317 11.5753 5.54321 11.8003 5.30538 11.9405L5.30537 11.9405C5.04022 12.0969 4.70937 12.1276 4.31132 12.0166M6.49472 11.1525C6.48944 11.1756 6.43761 11.3891 6.30254 11.6478C6.16728 11.907 5.94495 12.2184 5.59555 12.4255C5.34434 12.5747 5.06403 12.6488 4.76022 12.6488C4.56819 12.6488 4.36762 12.6189 4.15919 12.5608C4.00899 12.5189 3.92115 12.363 3.96324 12.2128M6.49472 11.1525C6.49474 11.1524 6.49475 11.1524 6.49477 11.1523L6.39727 11.1301M6.49472 11.1525C6.4947 11.1526 6.49469 11.1526 6.49467 11.1527L6.39727 11.1301M3.96324 12.2128C4.00504 12.0623 4.16103 11.9744 4.31132 12.0166M3.96324 12.2128C3.96323 12.2128 3.96321 12.2129 3.9632 12.213L4.05957 12.2397L3.96329 12.2126C3.96328 12.2127 3.96326 12.2127 3.96324 12.2128ZM4.31132 12.0166C4.31136 12.0166 4.31139 12.0166 4.31142 12.0166L4.28435 12.1129L4.31122 12.0166C4.31126 12.0166 4.31129 12.0166 4.31132 12.0166Z" fill="#CF5A0D" stroke="#CF5A0D" stroke-width="0.2"/>
<path d="M8.07638 13.7443V13.7443C8.07641 13.3224 7.73312 12.9789 7.31097 12.9789C6.88911 12.9789 6.54577 13.3224 6.54577 13.7443L8.07638 13.7443ZM8.07638 13.7443C8.07638 14.1663 7.73312 14.5098 7.31095 14.5098C6.88909 14.5098 6.5458 14.1663 6.54577 13.7443H8.07638ZM5.98057 13.7443V13.7443C5.98057 14.478 6.57728 15.075 7.31097 15.075C8.04492 15.075 8.64161 14.478 8.64161 13.7443C8.64161 13.0107 8.04499 12.4137 7.31094 12.4137C6.57724 12.4137 5.9806 13.0107 5.98057 13.7443Z" fill="#CF5A0D" stroke="#CF5A0D" stroke-width="0.2"/>
<path d="M14.0298 13.7443V13.7442C14.0298 13.3806 14.3253 13.0851 14.689 13.0851C15.0523 13.0851 15.3482 13.3805 15.3482 13.7442L14.0298 13.7443ZM14.0298 13.7443C14.0298 14.108 14.3253 14.4035 14.689 14.4035M14.0298 13.7443L14.689 14.4035M14.689 14.4035C15.0523 14.4035 15.3483 14.108 15.3482 13.7443L14.689 14.4035ZM14.783 13.7442V13.7443C14.783 13.7959 14.7406 13.8383 14.689 13.8383C14.6372 13.8383 14.595 13.796 14.595 13.7442C14.595 13.6925 14.6372 13.6503 14.689 13.6503C14.7406 13.6503 14.783 13.6927 14.783 13.7442Z" fill="#CF5A0D" stroke="#CF5A0D" stroke-width="0.2"/>
<path d="M7.31099 14.4035C6.94756 14.4035 6.65204 14.108 6.65204 13.7443C6.65204 13.3806 6.94753 13.0851 7.31096 13.0851C7.67464 13.0851 7.97016 13.3806 7.97016 13.7443L7.31099 14.4035ZM7.31099 14.4035C7.6746 14.4035 7.97019 14.108 7.97016 13.7443L7.31099 14.4035ZM7.40496 13.7442V13.7443C7.40496 13.796 7.36276 13.8383 7.31096 13.8383C7.25955 13.8383 7.21725 13.7961 7.21725 13.7443C7.21725 13.6925 7.25953 13.6503 7.31099 13.6503C7.36277 13.6503 7.40497 13.6926 7.40496 13.7442Z" fill="#CF5A0D" stroke="#CF5A0D" stroke-width="0.2"/>
<path d="M14.689 14.5098C14.2671 14.5098 13.9235 14.1663 13.9235 13.7443V13.7443C13.9235 13.3225 14.2671 12.9789 14.689 12.9789C15.1108 12.9789 15.4541 13.3224 15.4541 13.7443C15.4541 14.1663 15.1108 14.5098 14.689 14.5098ZM13.3583 13.7443C13.3583 14.478 13.955 15.075 14.689 15.075C15.4227 15.075 16.0193 14.478 16.0193 13.7443C16.0193 13.0107 15.4227 12.4137 14.689 12.4137C13.955 12.4137 13.3583 13.0107 13.3583 13.7443Z" fill="#CF5A0D" stroke="#CF5A0D" stroke-width="0.2"/>
<path d="M16.6338 12.681V12.681L16.6338 11.7937C16.6338 11.7937 16.6338 11.7937 16.6338 11.7937C16.6338 11.6376 16.7603 11.5111 16.9164 11.5111H17.8107C17.9667 11.5111 18.0933 11.6376 18.0933 11.7937L16.6338 12.681ZM16.6338 12.681C16.6338 12.8371 16.7604 12.9636 16.9164 12.9636H17.8103C17.9664 12.9636 18.093 12.8371 18.093 12.681C18.093 12.525 17.9665 12.3984 17.8104 12.3984H17.199M16.6338 12.681L17.199 12.3984M17.199 12.3984V12.0763H17.8107C17.9667 12.0763 18.0933 11.9498 18.0933 11.7937L17.199 12.3984Z" fill="#CF5A0D" stroke="#CF5A0D" stroke-width="0.2"/>
<path d="M8.44288 10.3677C8.44288 10.5237 8.56951 10.6503 8.72551 10.6503C8.88154 10.6503 9.00811 10.5237 9.00811 10.3677L9.00808 6.63158C9.00808 6.47552 8.88154 6.34897 8.72548 6.34897C8.56945 6.34897 8.44291 6.47553 8.44291 6.63157L8.44288 10.3677ZM7.61863 10.6444C7.61863 10.8005 7.74523 10.927 7.90126 10.927L7.61869 6.63158L7.61863 10.6444ZM7.90129 10.927C8.0573 10.927 8.18389 10.8004 8.18389 10.6444L8.18383 6.63157C8.18383 6.47553 8.05733 6.34898 7.90123 6.34898C7.74513 6.34898 7.61869 6.47556 7.61869 6.63157L7.90129 10.927Z" fill="#CF5A0D" stroke="#CF5A0D" stroke-width="0.2"/>
<path d="M10.4216 6.91417H6.20522C6.04876 6.91417 5.92255 6.78751 5.92255 6.63156L5.92262 3.20775L10.4216 6.91417ZM10.4216 6.91417C10.5776 6.91417 10.7042 6.7876 10.7042 6.63156L10.7041 3.20775C10.7041 3.05171 10.5776 2.92515 10.4216 2.92515H6.20515C6.04861 2.92515 5.92262 3.05185 5.92262 3.20775L10.4216 6.91417ZM10.1389 3.49035V6.34896H6.48782V3.49035H10.1389Z" fill="#CF5A0D" stroke="#CF5A0D" stroke-width="0.2"/>
</g>
<defs>
<clipPath id="clip0_1727_19">
<rect width="14" height="14" fill="white" transform="translate(4 2)"/>
</clipPath>
</defs>
</svg>
